<svg width="345" height="352" viewBox="0 0 345 352" fill="none" xmlns="http://www.w3.org/2000/svg">
<path d="M236.29 113.783V219.381L144.833 272.174V166.587L236.29 113.783Z" fill="#373A3A"/>
<path d="M236.29 113.783L144.833 166.587L53.3865 113.783L144.833 60.9788L236.29 113.783Z" fill="white"/>
<path d="M144.833 166.587V272.174L53.3865 219.381V113.783L144.833 166.587Z" fill="white"/>
<path d="M53.3865 113.783L144.833 60.9788L236.29 113.783L144.833 166.587L53.3865 113.783Z" stroke="#373A3A" stroke-width="2" stroke-linecap="round" stroke-linejoin="round"/>
<path d="M144.833 166.587V272.174" stroke="#373A3A" stroke-width="2" stroke-linecap="round" stroke-linejoin="round"/>
<path d="M53.3865 113.783V219.381L144.833 272.174L236.29 219.381V113.783" stroke="#373A3A" stroke-width="2" stroke-linecap="round" stroke-linejoin="round"/>
<path d="M313.222 191.155V296.763L221.765 349.545V243.959L313.222 191.155Z" fill="#373A3A"/>
<path d="M313.222 191.155L221.765 243.959L130.308 191.155L221.765 138.361L313.222 191.155Z" fill="#10C285"/>
<path d="M221.765 243.959V349.545L130.308 296.763V191.155L221.765 243.959Z" fill="white"/>
<path d="M130.308 191.155L221.765 138.361L313.222 191.155L221.765 243.959L130.308 191.155Z" stroke="#373A3A" stroke-width="2" stroke-linecap="round" stroke-linejoin="round"/>
<path d="M221.765 243.959V349.546" stroke="#373A3A" stroke-width="2" stroke-linecap="round" stroke-linejoin="round"/>
<path d="M130.308 191.155V296.763L221.765 349.545L313.222 296.763V191.155" stroke="#373A3A" stroke-width="2" stroke-linecap="round" stroke-linejoin="round"/>
<path d="M342.865 54.4413V160.05L251.408 212.832V107.257L342.865 54.4413Z" fill="#373A3A"/>
<path d="M342.865 54.4413L251.408 107.257L159.962 54.4413L251.408 1.64801L342.865 54.4413Z" fill="white"/>
<path d="M251.408 107.257V212.832L159.962 160.05V54.4413L251.408 107.257Z" fill="white"/>
<path d="M159.962 54.4413L251.408 1.64801L342.865 54.4413L251.408 107.257L159.962 54.4413Z" stroke="#373A3A" stroke-width="2" stroke-linecap="round" stroke-linejoin="round"/>
<path d="M251.408 107.257V212.832" stroke="#373A3A" stroke-width="2" stroke-linecap="round" stroke-linejoin="round"/>
<path d="M159.962 54.4413V160.05L251.408 212.832L342.865 160.05V54.4413" stroke="#373A3A" stroke-width="2" stroke-linecap="round" stroke-linejoin="round"/>
<path d="M118.738 191.704C120.297 192.72 121.594 194.089 122.524 195.7C123.453 197.312 123.99 199.12 124.089 200.977C124.167 201.658 124.054 202.348 123.763 202.968C123.472 203.589 123.014 204.117 122.441 204.493L104.312 214.953C100.746 216.943 96.873 218.324 92.8524 219.04C89.6425 219.64 86.3834 219.938 83.1178 219.93C80.6601 219.931 78.2049 219.773 75.7675 219.458C69.0878 218.657 62.6279 216.564 56.7486 213.294L56.507 213.151L58.9351 208.932C60.6545 205.915 62.7436 203.125 65.1539 200.626C70.1364 203.12 75.5943 204.521 81.1622 204.735C86.9854 205.031 92.6108 204.12 96.5443 201.944L96.7529 201.834L115.047 191.276C115.648 191.028 116.302 190.938 116.948 191.013C117.594 191.088 118.21 191.326 118.738 191.704Z" fill="#DAE0E5"/>
<path d="M38.466 247.903C36.9168 254.704 37.9607 259.901 40.224 261.209C41.7622 262.099 44.6189 261.538 47.7942 259.714C48.3875 259.363 48.9808 258.989 49.5741 258.616C52.7604 263.175 55.0676 268.251 55.6389 272.723L55.3752 272.877C51.347 275.379 46.7126 276.735 41.971 276.799C38.7029 276.83 35.4848 275.996 32.6429 274.382C30.9335 273.398 29.403 272.131 28.1162 270.636C24.5453 266.559 22.6226 260.747 22.6226 253.946C22.6226 246.475 24.9518 238.191 29.1379 230.434C29.3906 229.961 29.6544 229.5 29.9181 229.038L45.8275 201.395C50.519 193.253 56.8915 186.584 63.7475 182.628C69.5267 179.332 75.4268 178.069 80.6677 179.025C82.7086 179.382 84.6717 180.092 86.469 181.123C92.8745 184.815 96.5332 192.264 96.5332 201.559V201.977C92.6218 204.174 86.9964 205.064 81.1512 204.768C81.8654 199.362 80.8215 195.374 78.8768 194.253C78.3096 193.951 77.6732 193.803 77.031 193.824C74.1304 193.824 69.5927 196.099 65.1428 200.658C62.7326 203.158 60.6437 205.948 58.9242 208.965L42.9928 236.553C40.9158 240.085 39.3893 243.912 38.466 247.903Z" fill="white"/>
<path d="M92.8635 219.051C91.8304 221.596 90.6227 224.067 89.2488 226.445L73.2954 254.067C71.7952 256.669 70.0982 259.152 68.2194 261.494C66.1843 256.278 63.3607 251.406 59.8472 247.046C59.9461 246.86 60.0558 246.684 60.1657 246.497L75.7676 219.48C78.205 219.795 80.6601 219.953 83.1179 219.952C86.3875 219.957 89.6503 219.656 92.8635 219.051Z" fill="white"/>
<path d="M81.5906 176.047C81.6534 177.105 81.3249 178.149 80.6677 178.981C75.4268 178.025 69.5267 179.244 63.7474 182.585C56.8914 186.54 50.5629 193.209 45.8274 201.351L45.3659 202.142C43.9475 199.538 43.1928 196.625 43.1685 193.66C43.1685 187.067 47.0689 181.002 53.87 177.08L72.4273 166.356C73.0357 166.083 73.7052 165.975 74.3686 166.043C75.032 166.11 75.666 166.351 76.207 166.741C77.7748 167.758 79.0798 169.131 80.0154 170.748C80.9511 172.365 81.4909 174.181 81.5906 176.047Z" fill="#DAE0E5"/>
<path d="M55.6389 272.679C54.7205 267.576 52.6459 262.75 49.5741 258.572C46.6441 254.29 42.8626 250.658 38.4659 247.903C39.3913 243.92 40.9178 240.1 42.9928 236.575L44.5199 233.928C44.9264 234.136 45.3439 234.367 45.7504 234.598C51.1883 237.827 55.9703 242.05 59.847 247.046C63.3528 251.407 66.169 256.28 68.1973 261.494C69.9262 265.78 70.8571 270.345 70.9441 274.965V301.608C70.8842 302.272 70.6491 302.907 70.263 303.45C69.8769 303.992 69.3536 304.422 68.7466 304.696C67.0857 305.541 65.2485 305.982 63.3849 305.982C61.5213 305.982 59.6841 305.541 58.0231 304.696C57.4162 304.422 56.8929 303.992 56.5068 303.45C56.1207 302.907 55.8856 302.272 55.8257 301.608V275.009C55.8186 274.229 55.7562 273.45 55.6389 272.679Z" fill="#DAE0E5"/>
<path d="M28.1161 270.614C28.1161 272.811 28.1161 274.921 28.1161 276.975C28.0313 277.614 27.785 278.221 27.4005 278.738C27.016 279.255 26.506 279.666 25.9187 279.931C24.2578 280.776 22.4206 281.217 20.557 281.217C18.6934 281.217 16.8562 280.776 15.1952 279.931C14.5883 279.657 14.065 279.227 13.6789 278.684C13.2928 278.142 13.0577 277.507 12.9978 276.843V250.222C12.9978 242.366 16.2939 235.938 22.0072 232.642C24.1965 231.39 26.6273 230.619 29.1379 230.379C25.0785 237.567 22.8416 245.639 22.6226 253.891C22.5786 260.725 24.5453 266.516 28.1161 270.614Z" fill="#DAE0E5"/>
<path d="M55.6499 272.679L55.3863 272.833C51.358 275.335 46.7237 276.691 41.982 276.755C38.7139 276.786 35.4958 275.952 32.6539 274.338C30.949 273.347 29.4195 272.081 28.1272 270.592C24.5783 266.504 22.6336 260.703 22.6336 253.902C22.6336 246.431 24.9628 238.147 29.1489 230.39C29.4016 229.917 29.6654 229.456 29.9291 228.994L45.8275 201.395C50.519 193.253 56.8915 186.584 63.7475 182.628C69.5267 179.332 75.4269 178.08 80.6677 179.025C82.7073 179.387 84.6695 180.097 86.469 181.123C92.8745 184.815 96.5333 192.264 96.5333 201.559V201.966" stroke="#373A3A" stroke-width="2" stroke-linecap="round" stroke-linejoin="round"/>
<path d="M92.8634 219.051C91.8303 221.596 90.6225 224.067 89.2487 226.445L73.2953 254.067C71.7951 256.669 70.0981 259.152 68.2192 261.494" stroke="#373A3A" stroke-width="2" stroke-linecap="round" stroke-linejoin="round"/>
<path d="M59.8581 247.035C59.957 246.849 60.0668 246.673 60.1767 246.486L75.7785 219.469" stroke="#373A3A" stroke-width="2" stroke-linecap="round" stroke-linejoin="round"/>
<path d="M81.1733 204.746C81.8874 199.34 80.8436 195.352 78.8988 194.231C78.3317 193.929 77.6953 193.781 77.0531 193.803C74.1525 193.803 69.6147 196.077 65.1649 200.637C62.7546 203.136 60.6656 205.926 58.9461 208.943L42.9929 236.554C40.9228 240.08 39.3966 243.899 38.466 247.881C36.9388 254.682 37.9607 259.879 40.2241 261.187C41.7623 262.077 44.619 261.516 47.7943 259.693C48.3876 259.341 48.9809 258.967 49.5742 258.594" stroke="#373A3A" stroke-width="2" stroke-linecap="round" stroke-linejoin="round"/>
<path d="M122.716 204.35L104.323 214.964C100.757 216.954 96.8839 218.335 92.8634 219.051C89.6535 219.651 86.3943 219.949 83.1288 219.941C80.671 219.942 78.2158 219.784 75.7784 219.469C69.0999 218.663 62.641 216.57 56.7596 213.305L56.5179 213.162" stroke="#373A3A" stroke-width="2" stroke-linecap="round" stroke-linejoin="round"/>
<path d="M45.3659 202.164C43.9475 199.56 43.1928 196.647 43.1685 193.682C43.1685 187.089 47.0689 181.025 53.87 177.102L72.4273 166.379C73.0357 166.106 73.7052 165.997 74.3686 166.065C75.032 166.132 75.666 166.373 76.207 166.763C77.7678 167.78 79.0668 169.151 79.9984 170.764C80.93 172.377 81.4681 174.187 81.5687 176.047C81.6315 177.105 81.3029 178.149 80.6457 178.981" stroke="#373A3A" stroke-width="2" stroke-linecap="round" stroke-linejoin="round"/>
<path d="M65.1648 200.636C70.1492 203.126 75.6061 204.526 81.1732 204.746C86.9964 205.031 92.6218 204.13 96.5552 201.955L96.7639 201.845L115.058 191.286C115.662 191.035 116.32 190.942 116.97 191.017C117.62 191.092 118.24 191.332 118.771 191.715C120.33 192.731 121.627 194.1 122.556 195.711C123.486 197.322 124.023 199.13 124.122 200.988C124.2 201.669 124.087 202.359 123.796 202.979C123.505 203.6 123.047 204.128 122.474 204.504" stroke="#373A3A" stroke-width="2" stroke-linecap="round" stroke-linejoin="round"/>
<path d="M28.1161 270.614C28.1161 272.811 28.1161 274.921 28.1161 276.975C28.0313 277.614 27.785 278.221 27.4005 278.738C27.016 279.255 26.506 279.666 25.9187 279.931C24.2578 280.776 22.4206 281.217 20.557 281.217C18.6934 281.217 16.8562 280.776 15.1952 279.931C14.5883 279.657 14.065 279.227 13.6789 278.684C13.2928 278.142 13.0577 277.507 12.9978 276.843V250.222C12.9978 242.366 16.2939 235.938 22.0072 232.642C24.1965 231.39 26.6273 230.619 29.1379 230.379" stroke="#373A3A" stroke-width="2" stroke-linecap="round" stroke-linejoin="round"/>
<path d="M44.5199 233.928C44.9265 234.136 45.344 234.367 45.7505 234.598C51.1837 237.833 55.9647 242.055 59.8471 247.046C63.3427 251.414 66.1579 256.285 68.1973 261.494C69.9263 265.78 70.8572 270.345 70.9441 274.965V301.608C70.8843 302.272 70.6492 302.907 70.2631 303.45C69.877 303.992 69.3537 304.422 68.7467 304.696C67.0858 305.541 65.2486 305.982 63.385 305.982C61.5214 305.982 59.6841 305.541 58.0232 304.696C57.4162 304.422 56.893 303.992 56.5068 303.45C56.1207 302.907 55.8857 302.272 55.8258 301.608V275.009C55.8239 274.244 55.7688 273.48 55.6609 272.723C54.7425 267.619 52.6679 262.794 49.596 258.616C46.666 254.334 42.8846 250.702 38.488 247.947" stroke="#373A3A" stroke-width="2" stroke-linecap="round" stroke-linejoin="round"/>
</svg>
