<svg width="328" height="386" viewBox="0 0 328 386" fill="none" xmlns="http://www.w3.org/2000/svg">
<path d="M325.436 119.123V155.344L294.074 173.448V137.24L325.436 119.123Z" fill="#373A3A"/>
<path d="M325.436 119.123L294.074 137.24L262.7 119.123L294.074 101.018L325.436 119.123Z" fill="white"/>
<path d="M294.074 137.24V173.448L262.7 155.344V119.123L294.074 137.24Z" fill="#DAE0E5"/>
<path d="M262.7 119.123L294.074 101.018L325.436 119.123L294.074 137.24L262.7 119.123Z" stroke="#373A3A" stroke-width="2" stroke-linecap="round" stroke-linejoin="round"/>
<path d="M294.074 137.24V173.448" stroke="#373A3A" stroke-width="2" stroke-linecap="round" stroke-linejoin="round"/>
<path d="M262.7 119.123V155.344L294.074 173.448L325.436 155.344V119.123" stroke="#373A3A" stroke-width="2" stroke-linecap="round" stroke-linejoin="round"/>
<path d="M274.311 266.03C281.395 265.236 288.553 266.624 294.826 270.009C299.608 272.769 302.057 276.307 302.057 279.651C302.057 282.437 300.386 285.081 296.951 287.063L228.617 326.512C221.035 330.892 207.881 330.4 199.069 325.294C194.287 322.533 191.838 318.995 191.838 315.639C191.838 312.866 193.522 310.222 197.021 308.239L265.356 268.778C268.127 267.272 271.173 266.337 274.311 266.03Z" fill="#5F646B"/>
<path d="M184.049 232.375C185.516 229.948 186.337 227.187 186.434 224.353C186.434 219.169 182.792 217.057 178.295 219.662C175.927 221.204 173.955 223.284 172.541 225.732C171.127 228.179 170.31 230.926 170.157 233.749C170.157 238.932 173.798 241.045 178.295 238.44C180.698 236.94 182.678 234.853 184.049 232.375ZM211.407 216.577C212.873 214.151 213.694 211.389 213.791 208.555C213.791 203.372 210.15 201.272 205.653 203.864C203.284 205.407 201.312 207.487 199.898 209.934C198.484 212.382 197.667 215.128 197.514 217.951C197.514 223.135 201.156 225.247 205.653 222.655C208.059 221.154 210.04 219.062 211.407 216.577ZM238.764 200.78C240.234 198.355 241.055 195.592 241.148 192.758C241.148 187.574 237.507 185.475 233.01 188.067C230.641 189.609 228.67 191.689 227.256 194.137C225.841 196.584 225.025 199.331 224.871 202.154C224.871 207.337 228.513 209.45 233.01 206.858C235.416 205.357 237.397 203.264 238.764 200.78ZM268.039 229.964V232.375L134.998 309.172V217.783L200.106 180.2V117.995L268.065 78.7413L268.039 229.964Z" fill="#DAE0E5"/>
<path d="M268.039 78.7413L200.106 117.969V104.997L134.998 67.4018L69.877 104.997V117.969L1.94391 78.7413L134.998 1.94397L268.039 78.7413Z" fill="white"/>
<path d="M238.764 200.78C237.397 203.264 235.416 205.357 233.01 206.858C228.513 209.45 224.871 207.35 224.871 202.153C225.024 199.331 225.841 196.584 227.255 194.137C228.67 191.689 230.641 189.609 233.01 188.067C237.507 185.475 241.148 187.574 241.148 192.758C241.055 195.592 240.234 198.355 238.764 200.78Z" fill="#5F646B"/>
<path d="M211.406 216.577C210.04 219.062 208.059 221.154 205.653 222.655C201.156 225.247 197.514 223.135 197.514 217.951C197.667 215.128 198.484 212.382 199.898 209.934C201.312 207.486 203.284 205.407 205.653 203.864C210.149 201.272 213.791 203.372 213.791 208.555C213.694 211.389 212.873 214.151 211.406 216.577Z" fill="#5F646B"/>
<path d="M200.106 117.969V180.187L134.998 217.783V155.565L200.106 117.969Z" fill="#10C285"/>
<path d="M200.106 104.997V117.969L134.998 155.565V142.605L200.106 104.997Z" fill="#10C285"/>
<path d="M200.106 104.997L134.998 142.605L69.877 104.997L134.998 67.4019L200.106 104.997Z" fill="#10C285"/>
<path d="M184.049 232.375C182.678 234.853 180.698 236.94 178.295 238.44C173.798 241.032 170.157 238.932 170.157 233.749C170.31 230.926 171.127 228.179 172.541 225.732C173.955 223.284 175.927 221.204 178.295 219.662C182.792 217.07 186.434 219.169 186.434 224.353C186.337 227.187 185.516 229.948 184.049 232.375Z" fill="#5F646B"/>
<path d="M134.998 217.783V309.172L1.94391 232.375V78.7413L69.877 117.969V180.187L134.998 217.783Z" fill="white"/>
<path d="M134.998 155.565V217.783L69.877 180.187V117.969L134.998 155.565Z" fill="#10C285"/>
<path d="M134.998 142.605V155.565L69.877 117.969V104.997L134.998 142.605Z" fill="#10C285"/>
<path d="M69.877 104.997L134.998 67.4019L200.106 104.997L134.998 142.605L69.877 104.997Z" stroke="#373A3A" stroke-width="2" stroke-linecap="round" stroke-linejoin="round"/>
<path d="M134.998 142.605V155.565" stroke="#373A3A" stroke-width="2" stroke-linecap="round" stroke-linejoin="round"/>
<path d="M69.877 104.997V180.187L134.998 217.783L200.106 180.187V104.997" stroke="#373A3A" stroke-width="2" stroke-linecap="round" stroke-linejoin="round"/>
<path d="M1.94391 78.7413L134.998 1.94397L268.039 78.7413L134.998 155.565L1.94391 78.7413Z" stroke="#373A3A" stroke-width="2" stroke-linecap="round" stroke-linejoin="round"/>
<path d="M134.998 155.565V309.172" stroke="#373A3A" stroke-width="2" stroke-linecap="round" stroke-linejoin="round"/>
<path d="M1.94391 78.7413V232.375L134.998 309.172L268.039 232.375V78.7413" stroke="#373A3A" stroke-width="2" stroke-linecap="round" stroke-linejoin="round"/>
<path d="M186.421 224.353C186.268 227.176 185.452 229.923 184.038 232.371C182.624 234.818 180.652 236.898 178.282 238.44C173.785 241.032 170.144 238.932 170.144 233.748C170.297 230.926 171.114 228.179 172.528 225.732C173.942 223.284 175.914 221.204 178.282 219.662C182.792 217.057 186.421 219.169 186.421 224.353Z" stroke="#373A3A" stroke-width="2" stroke-linecap="round" stroke-linejoin="round"/>
<path d="M213.791 208.555C213.638 211.38 212.821 214.128 211.407 216.578C209.993 219.028 208.022 221.11 205.653 222.655C201.156 225.247 197.514 223.135 197.514 217.951C197.667 215.128 198.484 212.382 199.898 209.934C201.312 207.486 203.284 205.407 205.653 203.864C210.149 201.272 213.791 203.372 213.791 208.555Z" stroke="#373A3A" stroke-width="2" stroke-linecap="round" stroke-linejoin="round"/>
<path d="M241.148 192.758C240.995 195.582 240.178 198.331 238.764 200.78C237.35 203.23 235.379 205.312 233.01 206.858C228.513 209.45 224.871 207.35 224.871 202.153C225.024 199.331 225.841 196.584 227.255 194.137C228.67 191.689 230.641 189.609 233.01 188.067C237.507 185.475 241.148 187.574 241.148 192.758Z" stroke="#373A3A" stroke-width="2" stroke-linecap="round" stroke-linejoin="round"/>
<path d="M178.295 229.057L188.572 234.993C197.998 240.441 205.826 248.272 211.272 257.7C216.717 267.128 219.588 277.822 219.597 288.709V313.449" stroke="#373A3A" stroke-width="2" stroke-linecap="round" stroke-linejoin="round"/>
<path d="M205.653 213.26L215.929 219.195C225.361 224.637 233.193 232.467 238.64 241.896C244.086 251.326 246.953 262.023 246.954 272.912V297.651" stroke="#373A3A" stroke-width="2" stroke-linecap="round" stroke-linejoin="round"/>
<path d="M233.075 197.488L243.364 203.424C252.787 208.875 260.612 216.706 266.055 226.134C271.498 235.562 274.368 246.254 274.376 257.14V281.88" stroke="#373A3A" stroke-width="2" stroke-linecap="round" stroke-linejoin="round"/>
<path d="M274.311 266.03C281.395 265.23 288.554 266.618 294.826 270.009C299.608 272.769 302.057 276.307 302.057 279.651C302.057 282.437 300.386 285.081 296.951 287.063L228.617 326.512C221.035 330.892 207.881 330.4 199.069 325.294C194.287 322.533 191.838 318.995 191.838 315.639C191.838 312.866 193.522 310.222 197.021 308.239L265.356 268.778C268.127 267.271 271.173 266.337 274.311 266.03Z" stroke="#373A3A" stroke-width="2" stroke-linecap="round" stroke-linejoin="round"/>
<path d="M79.9464 231.805V278.601L39.4095 302.006L79.9464 231.805Z" fill="#373A3A"/>
<path d="M55.6397 217.77L15.1092 287.971L39.4074 301.999L79.9379 231.798L55.6397 217.77Z" fill="white"/>
<path d="M39.4095 302.006L79.9464 278.601V231.805L39.4095 302.006Z" stroke="#373A3A" stroke-width="2" stroke-linecap="round" stroke-linejoin="round"/>
<path d="M39.4095 302.006L15.1236 287.984L55.6606 217.783L79.9465 231.805" stroke="#373A3A" stroke-width="2" stroke-linecap="round" stroke-linejoin="round"/>
<path d="M155.15 306.956V374.138C155.15 376.574 153.53 379.023 150.303 380.876C143.823 384.609 133.378 384.609 126.911 380.876C123.684 379.023 122.078 376.574 122.078 374.138V306.839C122.078 309.276 123.684 311.725 126.911 313.591C133.391 317.324 143.836 317.324 150.303 313.591C153.478 311.751 155.098 309.354 155.15 306.956Z" fill="white"/>
<path d="M155.15 306.839V306.956C155.15 309.353 153.478 311.751 150.303 313.591C143.823 317.323 133.378 317.323 126.911 313.591C123.684 311.725 122.078 309.276 122.078 306.839C122.078 304.403 123.684 301.954 126.911 300.088C133.391 296.355 143.836 296.355 150.303 300.088C153.53 301.954 155.15 304.403 155.15 306.839Z" fill="white"/>
<path d="M155.15 306.956C155.15 309.353 153.478 311.751 150.303 313.591C143.823 317.323 133.378 317.323 126.911 313.591C123.684 311.725 122.078 309.276 122.078 306.839C122.078 304.403 123.684 301.954 126.911 300.088C133.391 296.355 143.836 296.355 150.303 300.088C153.53 301.954 155.15 304.403 155.15 306.839V306.956Z" stroke="#373A3A" stroke-width="2" stroke-linecap="round" stroke-linejoin="round"/>
<path d="M155.15 306.839V374.138C155.15 376.574 153.53 379.023 150.303 380.876C143.823 384.609 133.378 384.609 126.911 380.876C123.684 379.023 122.078 376.574 122.078 374.138V306.839" stroke="#373A3A" stroke-width="2" stroke-linecap="round" stroke-linejoin="round"/>
</svg>
