<svg width="369" height="288" viewBox="0 0 369 288" fill="none" xmlns="http://www.w3.org/2000/svg">
<path d="M359.56 103.85V138.85L260.47 196.06C256.28 198.48 252.47 198.71 249.75 197.12L249.55 197C246.93 195.37 245.31 192 245.31 187.31C245.31 177.65 252.1 165.9 260.47 161.07L359.56 103.85Z" fill="#10C285"/>
<path d="M310 132.47L260.47 161.07C252.1 165.9 245.31 177.65 245.31 187.31C245.31 192.03 246.93 195.37 249.55 197L152.88 141.19C150.14 139.61 148.44 136.19 148.44 131.38C148.44 121.72 155.23 109.97 163.6 105.14L262.69 47.92L294.94 66.54L281.03 74.54C278.28 76.12 276.94 78.2401 276.94 80.4601C276.94 83.1401 278.94 85.9701 282.73 88.1801C289.73 92.1801 300.3 92.6501 306.35 89.1801L320.26 81.1801L359.56 103.87L310 132.47ZM289.2 119.61C292.5 117.71 292.5 114.61 289.2 112.73C287.351 111.794 285.308 111.305 283.235 111.305C281.162 111.305 279.119 111.794 277.27 112.73C273.98 114.63 273.98 117.73 277.27 119.61C279.119 120.547 281.162 121.035 283.235 121.035C285.308 121.035 287.351 120.547 289.2 119.61ZM262.78 106.08C266.07 104.17 266.07 101.08 262.78 99.1901C260.931 98.2535 258.888 97.7654 256.815 97.7654C254.742 97.7654 252.699 98.2535 250.85 99.1901C247.55 101.09 247.55 104.19 250.85 106.08C252.699 107.017 254.742 107.505 256.815 107.505C258.888 107.505 260.931 107.017 262.78 106.08ZM236.78 99.8601C240.07 97.9601 240.07 94.8601 236.78 92.9701C234.931 92.0335 232.888 91.5454 230.815 91.5454C228.742 91.5454 226.699 92.0335 224.85 92.9701C221.55 94.8801 221.55 97.9701 224.85 99.8601C226.699 100.797 228.742 101.285 230.815 101.285C232.888 101.285 234.931 100.797 236.78 99.8601Z" fill="white"/>
<path d="M327.94 76.7301V85.5901L320.26 81.1601L327.94 76.7301Z" fill="#373A3A"/>
<path d="M327.94 76.7301L306.35 89.1901C300.35 92.6801 289.72 92.2501 282.73 88.1901C278.9 85.9801 276.94 83.1901 276.94 80.4701C276.94 78.2501 278.28 76.13 281.03 74.55L302.61 62.0901L327.94 76.7301Z" fill="#373A3A"/>
<path d="M283.23 121.03C287.891 121.03 291.67 118.854 291.67 116.17C291.67 113.486 287.891 111.31 283.23 111.31C278.569 111.31 274.79 113.486 274.79 116.17C274.79 118.854 278.569 121.03 283.23 121.03Z" fill="white"/>
<path d="M262.78 99.1901C266.07 101.09 266.07 104.19 262.78 106.08C260.931 107.017 258.888 107.505 256.815 107.505C254.742 107.505 252.699 107.017 250.85 106.08C247.55 104.17 247.55 101.08 250.85 99.1901C252.699 98.2535 254.742 97.7654 256.815 97.7654C258.888 97.7654 260.931 98.2535 262.78 99.1901Z" fill="white"/>
<path d="M236.78 92.9701C240.07 94.8801 240.07 97.9701 236.78 99.8601C234.931 100.797 232.888 101.285 230.815 101.285C228.742 101.285 226.699 100.797 224.85 99.8601C221.55 97.9601 221.55 94.8601 224.85 92.9701C226.699 92.0335 228.742 91.5454 230.815 91.5454C232.888 91.5454 234.931 92.0335 236.78 92.9701Z" fill="white"/>
<path d="M249.55 197C246.93 195.37 245.31 192 245.31 187.31C245.31 177.65 252.1 165.9 260.47 161.07L359.56 103.85" stroke="#373A3A" stroke-width="2" stroke-linecap="round" stroke-linejoin="round"/>
<path d="M320.26 81.16L359.56 103.85V138.85L260.47 196.06C256.28 198.48 252.47 198.71 249.75 197.12" stroke="#373A3A" stroke-width="2" stroke-linecap="round" stroke-linejoin="round"/>
<path d="M215.23 177.04C213.15 175.24 211.91 172.16 211.91 168.04C212.197 162.784 213.718 157.669 216.35 153.11C218.982 148.551 222.651 144.676 227.06 141.8L250.27 128.4L256.27 107.52" stroke="#373A3A" stroke-width="2" stroke-linecap="round" stroke-linejoin="round"/>
<path d="M177.15 155.05C175.07 153.26 173.83 150.18 173.83 146.05C174.115 140.792 175.636 135.675 178.268 131.114C180.9 126.554 184.57 122.677 188.98 119.8L223.72 99.7401" stroke="#373A3A" stroke-width="2" stroke-linecap="round" stroke-linejoin="round"/>
<path d="M294.94 66.54L262.69 47.92L163.6 105.14C155.23 109.97 148.44 121.72 148.44 131.38C148.44 136.22 150.14 139.61 152.88 141.19L249.75 197.12" stroke="#373A3A" stroke-width="2" stroke-linecap="round" stroke-linejoin="round"/>
<path d="M310 132.47L288.48 120.04" stroke="#373A3A" stroke-width="2" stroke-linecap="round" stroke-linejoin="round"/>
<path d="M236.78 99.8601C234.931 100.797 232.888 101.285 230.815 101.285C228.742 101.285 226.699 100.797 224.85 99.8601C221.55 97.9601 221.55 94.8601 224.85 92.9701C226.699 92.0335 228.742 91.5454 230.815 91.5454C232.888 91.5454 234.931 92.0335 236.78 92.9701C240.02 94.8801 240.02 97.9601 236.78 99.8601Z" stroke="#373A3A" stroke-width="2" stroke-linecap="round" stroke-linejoin="round"/>
<path d="M262.78 106.08C260.931 107.017 258.888 107.505 256.815 107.505C254.742 107.505 252.699 107.017 250.85 106.08C247.55 104.17 247.55 101.08 250.85 99.1901C252.699 98.2535 254.742 97.7654 256.815 97.7654C258.888 97.7654 260.931 98.2535 262.78 99.1901C266.06 101.09 266.06 104.17 262.78 106.08Z" stroke="#373A3A" stroke-width="2" stroke-linecap="round" stroke-linejoin="round"/>
<path d="M283.23 121.03C287.891 121.03 291.67 118.854 291.67 116.17C291.67 113.486 287.891 111.31 283.23 111.31C278.569 111.31 274.79 113.486 274.79 116.17C274.79 118.854 278.569 121.03 283.23 121.03Z" stroke="#373A3A" stroke-width="2" stroke-linecap="round" stroke-linejoin="round"/>
<path d="M327.94 76.7301L306.35 89.1901C300.35 92.6801 289.72 92.2501 282.73 88.1901C278.9 85.9801 276.94 83.1901 276.94 80.4701C276.94 78.2501 278.28 76.13 281.03 74.55L302.61 62.0901L327.94 76.7301Z" stroke="#373A3A" stroke-width="2" stroke-linecap="round" stroke-linejoin="round"/>
<path d="M327.94 76.7301V85.5901" stroke="#373A3A" stroke-width="2" stroke-linecap="round" stroke-linejoin="round"/>
<path d="M189.06 255.54C201.16 262.54 201.16 273.85 189.06 280.84C176.96 287.83 157.34 287.84 145.24 280.84C133.14 273.84 133.14 262.52 145.24 255.54C157.34 248.56 176.96 248.55 189.06 255.54ZM173.78 272.04C177.47 269.91 177.47 266.46 173.78 264.34C171.714 263.29 169.428 262.742 167.11 262.742C164.792 262.742 162.506 263.29 160.44 264.34C156.76 266.46 156.76 269.91 160.44 272.04C162.506 273.09 164.792 273.638 167.11 273.638C169.428 273.638 171.714 273.09 173.78 272.04Z" fill="white"/>
<path d="M173.78 264.34C177.47 266.46 177.47 269.91 173.78 272.04C171.713 273.09 169.428 273.638 167.11 273.638C164.792 273.638 162.506 273.09 160.44 272.04C156.76 269.91 156.76 266.46 160.44 264.34C162.506 263.29 164.792 262.742 167.11 262.742C169.428 262.742 171.713 263.29 173.78 264.34Z" fill="#969A9E"/>
<path d="M114.37 220.92C126.47 227.92 126.47 239.23 114.37 246.22C102.27 253.21 82.6501 253.22 70.5501 246.22C58.4501 239.22 58.4401 227.9 70.5501 220.92C82.6601 213.94 102.27 213.93 114.37 220.92ZM92.46 240.83L105.03 233.57L92.46 226.31L79.88 233.57L92.46 240.83Z" fill="#10C285"/>
<path d="M105.03 233.57L92.45 240.83L79.88 233.57L92.45 226.31L105.03 233.57Z" fill="#373A3A"/>
<path d="M32.49 208.33C49.5998 208.33 63.47 200.32 63.47 190.44C63.47 180.56 49.5998 172.55 32.49 172.55C15.3802 172.55 1.51001 180.56 1.51001 190.44C1.51001 200.32 15.3802 208.33 32.49 208.33Z" fill="white"/>
<path d="M32.49 208.33C49.5998 208.33 63.47 200.32 63.47 190.44C63.47 180.56 49.5998 172.55 32.49 172.55C15.3802 172.55 1.51001 180.56 1.51001 190.44C1.51001 200.32 15.3802 208.33 32.49 208.33Z" stroke="#373A3A" stroke-width="2" stroke-linecap="round" stroke-linejoin="round"/>
<path d="M114.37 246.22C102.27 253.22 82.6501 253.22 70.5501 246.22C58.4501 239.22 58.4401 227.9 70.5501 220.92C82.6601 213.94 102.27 213.92 114.37 220.92C126.47 227.92 126.47 239.23 114.37 246.22Z" stroke="#373A3A" stroke-width="2" stroke-linecap="round" stroke-linejoin="round"/>
<path d="M167.15 286.08C184.265 286.08 198.14 278.07 198.14 268.19C198.14 258.31 184.265 250.3 167.15 250.3C150.035 250.3 136.16 258.31 136.16 268.19C136.16 278.07 150.035 286.08 167.15 286.08Z" stroke="#373A3A" stroke-width="2" stroke-linecap="round" stroke-linejoin="round"/>
<path d="M54.4 177.79L61.78 174.68C81.42 166.36 108.12 166.32 127.84 174.58C138.299 178.766 149.475 180.865 160.74 180.76C175.17 180.76 189.51 177.55 200.36 171.29C180.88 182.53 178.46 200.29 194.65 213.16C201.78 218.83 205.34 225.49 205.34 232.16C205.34 238.83 201.72 245.61 194.48 251.3L189.09 255.54" stroke="#373A3A" stroke-width="2" stroke-linecap="round" stroke-linejoin="round"/>
<path d="M200.33 171.29L114.37 220.92" stroke="#373A3A" stroke-width="2" stroke-linecap="round" stroke-linejoin="round"/>
<path d="M105.03 233.57L92.45 226.31L79.88 233.57L92.45 240.83L105.03 233.57Z" stroke="#373A3A" stroke-width="2" stroke-linecap="round" stroke-linejoin="round"/>
<path d="M173.78 272.04C177.47 269.91 177.47 266.46 173.78 264.34C171.713 263.29 169.428 262.742 167.11 262.742C164.792 262.742 162.506 263.29 160.44 264.34C156.76 266.46 156.76 269.91 160.44 272.04C162.506 273.09 164.792 273.638 167.11 273.638C169.428 273.638 171.713 273.09 173.78 272.04Z" stroke="#373A3A" stroke-width="2" stroke-linecap="round" stroke-linejoin="round"/>
<path d="M26.29 186.86L38.69 194.02" stroke="#373A3A" stroke-width="2" stroke-linecap="round" stroke-linejoin="round"/>
<path d="M32.5699 183.24L44.9599 190.4" stroke="#373A3A" stroke-width="2" stroke-linecap="round" stroke-linejoin="round"/>
<path d="M20.02 190.49L32.41 197.64" stroke="#373A3A" stroke-width="2" stroke-linecap="round" stroke-linejoin="round"/>
<path d="M123.55 94.2426V107.182C123.55 109.512 122.01 111.832 118.92 113.622C112.77 117.172 102.79 117.172 96.62 113.622C93.55 111.832 92 109.512 92 107.182V94.2925C92 96.6225 93.55 98.9525 96.62 100.733C102.79 104.283 112.77 104.283 118.92 100.733C122.01 98.9025 123.55 96.5726 123.55 94.2426Z" fill="#DAE0E5"/>
<path d="M123.55 81.3525V94.2426C123.55 96.5726 122.01 98.9025 118.92 100.682C112.77 104.232 102.79 104.232 96.62 100.682C93.55 98.9025 92 96.5726 92 94.2426V81.3525C92 83.6825 93.55 86.0125 96.62 87.7925C102.79 91.3525 112.77 91.3525 118.92 87.7925C122.01 86.0125 123.55 83.6825 123.55 81.3525Z" fill="#C2C7CC"/>
<path d="M123.55 68.4625V81.3525C123.55 83.6825 122.01 86.0125 118.92 87.7925C112.77 91.3525 102.79 91.3525 96.62 87.7925C93.55 86.0125 92 83.6825 92 81.3525V68.4625C92 70.8025 93.55 73.1225 96.62 74.9025C102.79 78.4625 112.77 78.4625 118.92 74.9025C122.01 73.1225 123.55 70.8025 123.55 68.4625Z" fill="#10C285"/>
<path d="M123.55 55.5825V68.4625C123.55 70.8025 122.01 73.1225 118.92 74.9025C112.77 78.4625 102.79 78.4625 96.62 74.9025C93.55 73.1225 92 70.8025 92 68.4625V55.5825C92 57.9125 93.55 60.2425 96.62 62.0225C102.79 65.5725 112.77 65.5725 118.92 62.0225C122.01 60.2425 123.55 57.9125 123.55 55.5825Z" fill="#C2C7CC"/>
<path d="M123.55 42.6825V55.5825C123.55 57.9125 122.01 60.2425 118.92 62.0225C112.77 65.5725 102.79 65.5725 96.62 62.0225C93.55 60.2425 92 57.9125 92 55.5825V42.6825C92 45.0225 93.55 47.3524 96.62 49.1324C102.79 52.6924 112.77 52.6924 118.92 49.1324C122.01 47.3524 123.55 45.0225 123.55 42.6825Z" fill="#DAE0E5"/>
<path d="M123.55 29.8025V42.6825C123.55 45.0225 122.01 47.3524 118.92 49.1324C112.77 52.6924 102.79 52.6924 96.62 49.1324C93.55 47.3524 92 45.0225 92 42.6825V29.8025C92 32.1325 93.55 34.4626 96.62 36.2426C102.79 39.7926 112.77 39.7926 118.92 36.2426C122.01 34.4626 123.55 32.1825 123.55 29.8025Z" fill="#DAE0E5"/>
<path d="M123.55 21.1825V29.8425C123.55 32.1725 122.01 34.5025 118.92 36.2825C112.77 39.8325 102.79 39.8325 96.62 36.2825C93.55 34.5025 92 32.1725 92 29.8425V17.1425C92 19.4725 93.55 21.8025 96.62 23.5825C102.79 27.1325 112.77 27.1325 118.92 23.5825C122.01 21.8025 123.55 19.4725 123.55 17.1425V21.1825Z" fill="#10C285"/>
<path d="M118.92 10.6625C122.01 12.4425 123.55 14.7726 123.55 17.1026C123.55 19.4326 122.01 21.7625 118.92 23.5425C112.77 27.0925 102.79 27.0925 96.62 23.5425C93.55 21.7625 92 19.4326 92 17.1026C92 14.7726 93.55 12.4425 96.62 10.6625C102.79 7.1125 112.77 7.1125 118.92 10.6625Z" fill="white"/>
<path d="M123.55 17.1026C123.55 19.4326 122.01 21.7625 118.92 23.5425C112.77 27.0925 102.79 27.0925 96.62 23.5425C93.55 21.7625 92 19.4326 92 17.1026C92 14.7726 93.55 12.4425 96.62 10.6625C102.79 7.1125 112.77 7.1125 118.92 10.6625C122.01 12.4425 123.55 14.7726 123.55 17.1026Z" stroke="#373A3A" stroke-width="2" stroke-linecap="round" stroke-linejoin="round"/>
<path d="M92 107.132V17.1024" stroke="#373A3A" stroke-width="2" stroke-linecap="round" stroke-linejoin="round"/>
<path d="M123.55 107.182C123.55 109.512 122.01 111.832 118.92 113.622C112.77 117.172 102.79 117.172 96.62 113.622C93.55 111.832 92 109.512 92 107.182" stroke="#373A3A" stroke-width="2" stroke-linecap="round" stroke-linejoin="round"/>
<path d="M123.55 29.8025C123.55 32.1325 122.01 34.4626 118.92 36.2426C112.77 39.7926 102.79 39.7926 96.62 36.2426C93.55 34.4626 92 32.1325 92 29.8025" stroke="#373A3A" stroke-width="2" stroke-linecap="round" stroke-linejoin="round"/>
<path d="M123.55 42.6825C123.55 45.0225 122.01 47.3524 118.92 49.1324C112.77 52.6924 102.79 52.6924 96.62 49.1324C93.55 47.3524 92 45.0225 92 42.6825" stroke="#373A3A" stroke-width="2" stroke-linecap="round" stroke-linejoin="round"/>
<path d="M123.55 55.5825C123.55 57.9125 122.01 60.2425 118.92 62.0225C112.77 65.5725 102.79 65.5725 96.62 62.0225C93.55 60.2425 92 57.9125 92 55.5825" stroke="#373A3A" stroke-width="2" stroke-linecap="round" stroke-linejoin="round"/>
<path d="M123.55 68.4625C123.55 70.8025 122.01 73.1225 118.92 74.9025C112.77 78.4625 102.79 78.4625 96.62 74.9025C93.55 73.1225 92 70.8025 92 68.4625" stroke="#373A3A" stroke-width="2" stroke-linecap="round" stroke-linejoin="round"/>
<path d="M123.55 81.3525C123.55 83.6825 122.01 86.0125 118.92 87.7925C112.77 91.3525 102.79 91.3525 96.62 87.7925C93.55 86.0125 92 83.6825 92 81.3525" stroke="#373A3A" stroke-width="2" stroke-linecap="round" stroke-linejoin="round"/>
<path d="M123.55 94.2426C123.55 96.5726 122.01 98.9025 118.92 100.682C112.77 104.232 102.79 104.232 96.62 100.682C93.55 98.9025 92 96.5726 92 94.2426" stroke="#373A3A" stroke-width="2" stroke-linecap="round" stroke-linejoin="round"/>
<path d="M123.54 17.1024V107.132" stroke="#373A3A" stroke-width="2" stroke-linecap="round" stroke-linejoin="round"/>
</svg>
