<svg width="367" height="334" viewBox="0 0 367 334" fill="none" xmlns="http://www.w3.org/2000/svg">
<g clip-path="url(#clip0_5274_552)">
<path d="M331.758 214.694L360.567 231.698" stroke="#373A3A" stroke-width="2" stroke-linecap="round" stroke-linejoin="round"/>
<path d="M317.251 219.951L346.06 236.954" stroke="#969A9E" stroke-width="2" stroke-linecap="round" stroke-linejoin="round"/>
<path d="M322.559 195.679L351.368 212.683" stroke="#969A9E" stroke-width="2" stroke-linecap="round" stroke-linejoin="round"/>
<path d="M275.172 93.5553V219.872L165.782 283.004V156.714L275.172 93.5553Z" fill="white"/>
<path d="M275.172 93.5553L165.782 156.714L56.3914 93.5553L165.782 30.4102L275.172 93.5553Z" fill="#10C285"/>
<path d="M165.782 156.714V283.004L56.3913 219.872V93.5553L165.782 156.714Z" fill="white"/>
<path d="M56.3914 93.5553L165.782 30.4102L275.172 93.5553L165.782 156.714L56.3914 93.5553Z" stroke="#373A3A" stroke-width="2" stroke-linecap="round" stroke-linejoin="round"/>
<path d="M165.782 156.714V283.004" stroke="#373A3A" stroke-width="2" stroke-linecap="round" stroke-linejoin="round"/>
<path d="M56.3913 93.5553V219.872L165.782 283.004L275.172 219.872V93.5553" stroke="#373A3A" stroke-width="2" stroke-linecap="round" stroke-linejoin="round"/>
<path d="M195.862 304.27L195.863 183.997L300.022 123.86L300.021 244.133L195.862 304.27Z" fill="#373A3A" stroke="#373A3A" stroke-width="2" stroke-linecap="round" stroke-linejoin="round"/>
<path d="M229.948 323.95L229.949 203.677L334.108 143.539L334.107 263.812L229.948 323.95Z" fill="white" stroke="#373A3A" stroke-width="2" stroke-linecap="round" stroke-linejoin="round"/>
<g clip-path="url(#clip1_5274_552)">
<path d="M7.22067 166.642L67.2051 202.04" stroke="#373A3A" stroke-width="2" stroke-linecap="round" stroke-linejoin="round"/>
<path d="M35.0679 122.038L73.5485 144.746" stroke="#969A9E" stroke-width="2" stroke-linecap="round" stroke-linejoin="round"/>
<path d="M15.9395 126.009L96.296 173.429" stroke="#373A3A" stroke-width="2" stroke-linecap="round" stroke-linejoin="round"/>
<path d="M2.46988 133.32L47.7412 160.035" stroke="#969A9E" stroke-width="2" stroke-linecap="round" stroke-linejoin="round"/>
<path d="M5.97711 150.649L59.1709 182.039" stroke="#969A9E" stroke-width="2" stroke-linecap="round" stroke-linejoin="round"/>
</g>
<path d="M149.039 20.1991L187.52 42.9073" stroke="#373A3A" stroke-width="2" stroke-linecap="round" stroke-linejoin="round"/>
<path d="M133.269 11L142.834 16.645" stroke="#373A3A" stroke-width="2" stroke-linecap="round" stroke-linejoin="round"/>
<path d="M137.212 26.7699L146.776 32.4149" stroke="#969A9E" stroke-width="2" stroke-linecap="round" stroke-linejoin="round"/>
<g clip-path="url(#clip2_5274_552)">
<path d="M135.877 174.412L196.522 208.668" stroke="#969A9E" stroke-width="2" stroke-linecap="round" stroke-linejoin="round"/>
<path d="M139.277 236.706L178.181 258.681" stroke="#969A9E" stroke-width="2" stroke-linecap="round" stroke-linejoin="round"/>
<path d="M95.8914 197.105L177.132 242.995" stroke="#373A3A" stroke-width="2" stroke-linecap="round" stroke-linejoin="round"/>
<path d="M158.422 217.333L204.191 243.187" stroke="#373A3A" stroke-width="2" stroke-linecap="round" stroke-linejoin="round"/>
<path d="M146.577 195.55L200.356 225.927" stroke="#969A9E" stroke-width="2" stroke-linecap="round" stroke-linejoin="round"/>
</g>
</g>
<defs>
<clipPath id="clip0_5274_552">
<rect width="367" height="334" fill="white"/>
</clipPath>
<clipPath id="clip1_5274_552">
<rect width="59.137" height="130.101" fill="white" transform="translate(-31 148.665) rotate(-59.4543)"/>
</clipPath>
<clipPath id="clip2_5274_552">
<rect width="59.137" height="168.212" fill="white" transform="matrix(-0.491824 0.870695 0.870695 0.491824 96.6466 147.672)"/>
</clipPath>
</defs>
</svg>
