<svg width="456" height="337" viewBox="0 0 456 337" fill="none" xmlns="http://www.w3.org/2000/svg">
<path d="M199.935 81.9831C198.729 79.8931 196.93 78.2076 194.767 77.1393C192.604 76.0709 190.172 75.6678 187.78 75.9809C185.387 76.2939 183.141 77.3091 181.326 78.8982C179.51 80.4872 178.206 82.5788 177.579 84.9086C176.951 87.2384 177.028 89.7019 177.8 91.9879C178.573 94.2738 180.005 96.2797 181.917 97.7519C183.828 99.2241 186.134 100.097 188.541 100.259C190.948 100.422 193.35 99.8669 195.442 98.6652C198.249 97.0481 200.3 94.3825 201.142 91.2543C201.984 88.1261 201.55 84.7912 199.935 81.9831Z" fill="white" stroke="#373A3A" stroke-width="2" stroke-linecap="round" stroke-linejoin="round"/>
<path d="M30.179 180.009L184.001 91.1926" stroke="#373A3A" stroke-width="2" stroke-linecap="round" stroke-linejoin="round"/>
<path d="M39.7533 187.376C43.8985 182.061 42.95 174.392 37.6349 170.247C32.3198 166.102 24.6507 167.05 20.5055 172.365C16.3603 177.68 17.3088 185.349 22.6239 189.495C27.939 193.64 35.6082 192.691 39.7533 187.376Z" fill="white" stroke="#373A3A" stroke-width="2" stroke-linecap="round" stroke-linejoin="round"/>
<path d="M156.672 108.773V132.733C156.672 139.831 152 146.914 142.611 152.32C123.862 163.162 93.4929 163.162 74.7293 152.32C65.355 146.914 60.6829 139.831 60.6829 132.733V109.103C60.8176 116.081 65.5048 123.029 74.7293 128.331C93.4929 139.172 123.862 139.172 142.611 128.331C152 122.955 156.672 115.871 156.672 108.773Z" fill="#DAE0E5"/>
<path d="M156.672 71.7852V95.745C156.637 97.9804 156.185 100.19 155.339 102.259C155.175 102.648 155.025 103.038 154.83 103.412C152.023 108.52 147.773 112.687 142.611 115.392C123.862 126.249 93.4929 126.249 74.7293 115.392C68.7394 111.978 64.6662 107.905 62.5247 103.412C62.3301 103.023 62.1654 102.633 62.0007 102.244C61.134 100.187 60.686 97.9774 60.6829 95.745V72.0846C60.8176 79.0779 65.5048 86.0262 74.7293 91.3573C93.4929 102.169 123.862 102.169 142.611 91.3573C152 85.9663 156.672 78.8683 156.672 71.7852Z" fill="white"/>
<path d="M156.672 34.7672V58.7271C156.637 60.9576 156.185 63.1619 155.339 65.2262C155.175 65.6155 155.025 66.0049 154.83 66.3793C152.027 71.49 147.776 75.658 142.611 78.3592C123.862 89.1861 93.4929 89.1861 74.7293 78.3592C68.7394 74.9449 64.6662 70.8717 62.5247 66.3793C62.3301 65.9749 62.1654 65.6005 62.0007 65.2112C61.1356 63.1586 60.6876 60.9545 60.6829 58.7271V35.0666C60.7254 36.2774 60.8859 37.4811 61.162 38.6607C61.4664 39.8757 61.898 41.0552 62.4498 42.1797C64.5762 46.5674 68.7094 50.7902 74.7293 54.2794C93.4929 65.0913 123.862 65.0913 142.611 54.2794C152 48.9483 156.672 41.8653 156.672 34.7672Z" fill="#DAE0E5"/>
<path d="M155.354 65.2264C156.219 67.2894 156.667 69.5034 156.672 71.7405C156.672 78.8236 152 85.9218 142.611 91.3278C123.862 102.14 93.493 102.14 74.7294 91.3278C65.5048 85.9967 60.8177 79.0484 60.6829 72.0551V71.7405C60.673 69.4971 61.1214 67.2753 62.0007 65.2114C62.1804 65.6008 62.3301 65.9752 62.5248 66.3795C64.6662 70.7821 68.7694 74.8853 74.7294 78.3595C93.493 89.1863 123.862 89.1863 142.611 78.3595C147.776 75.6582 152.027 71.4902 154.83 66.3795C155.024 66.0063 155.194 65.6211 155.339 65.2264H155.354Z" fill="#5F646B"/>
<path d="M155.354 102.274C156.218 104.333 156.666 106.541 156.672 108.773C156.672 115.871 152 122.955 142.611 128.361C123.862 139.202 93.4929 139.202 74.7293 128.361C65.5048 123.06 60.8176 116.111 60.6828 109.133V108.773C60.675 106.535 61.1234 104.319 62.0006 102.259C62.1803 102.649 62.3301 103.038 62.5247 103.427C64.6661 107.83 68.7693 111.933 74.7293 115.407C93.4929 126.264 123.862 126.264 142.611 115.407C147.773 112.702 152.023 108.535 154.83 103.427C155.024 103.054 155.194 102.669 155.339 102.274H155.354Z" fill="#5F646B"/>
<path d="M142.626 15.1651C152.015 20.601 156.687 27.6543 156.687 34.7674C156.687 41.8805 152.015 48.9486 142.626 54.3695C123.877 65.1814 93.5079 65.1814 74.7444 54.3695C68.7544 50.8803 64.5913 46.6575 62.4648 42.2698C61.913 41.1453 61.4814 39.9656 61.177 38.7506C60.9009 37.571 60.7405 36.3674 60.6979 35.1567V34.8122C60.6979 27.6991 65.3701 20.616 74.7444 15.21C93.493 4.33823 123.862 4.33819 142.626 15.1651Z" fill="white"/>
<path d="M60.6829 109.133C60.8176 116.111 65.5048 123.059 74.7293 128.361C93.4929 139.202 123.862 139.202 142.611 128.361C152 122.955 156.672 115.871 156.672 108.773C156.666 106.541 156.218 104.332 155.354 102.274" stroke="#373A3A" stroke-width="2" stroke-linecap="round" stroke-linejoin="round"/>
<path d="M62.0006 102.259C61.1234 104.319 60.675 106.535 60.6828 108.773V132.733C60.6828 139.831 65.355 146.915 74.7293 152.321C93.4929 163.162 123.862 163.162 142.611 152.321C152 146.915 156.672 139.831 156.672 132.733V108.773" stroke="#373A3A" stroke-width="2" stroke-linecap="round" stroke-linejoin="round"/>
<path d="M60.6829 72.0997C60.8176 79.093 65.5048 86.0414 74.7293 91.3724C93.4929 102.184 123.862 102.184 142.611 91.3724C152 85.9665 156.672 78.8684 156.672 71.7853C156.667 69.5482 156.219 67.3343 155.354 65.2712" stroke="#373A3A" stroke-width="2" stroke-linecap="round" stroke-linejoin="round"/>
<path d="M62.0007 65.2266C61.1214 67.2905 60.673 69.5122 60.6829 71.7556V95.7155C60.686 97.9479 61.134 100.157 62.0007 102.215C62.1654 102.604 62.3301 102.993 62.5248 103.383C64.6662 107.785 68.7694 111.888 74.7294 115.363C93.493 126.219 123.862 126.219 142.611 115.363C147.773 112.657 152.023 108.49 154.83 103.383C155.025 103.008 155.175 102.619 155.339 102.23C156.185 100.16 156.637 97.9509 156.672 95.7155V71.7556" stroke="#373A3A" stroke-width="2" stroke-linecap="round" stroke-linejoin="round"/>
<path d="M60.6829 35.1116C60.7255 36.3224 60.8859 37.5261 61.162 38.7057C61.4664 39.9207 61.8981 41.1002 62.4498 42.2247C64.5763 46.6124 68.7095 50.8352 74.7294 54.3244C93.493 65.1363 123.862 65.1363 142.611 54.3244C152 48.9035 156.672 41.8204 156.672 34.7223C156.672 27.6242 152 20.5561 142.611 15.1202C123.862 4.29328 93.493 4.29328 74.7294 15.1202C65.3551 20.5261 60.6679 27.6092 60.6829 34.7223" stroke="#373A3A" stroke-width="2" stroke-linecap="round" stroke-linejoin="round"/>
<path d="M60.6829 34.7672V58.7271C60.6876 60.9545 61.1356 63.1586 62.0007 65.2112C62.1654 65.6005 62.3301 65.9749 62.5247 66.3793C64.6662 70.7819 68.7693 74.885 74.7293 78.3592C93.4929 89.1861 123.862 89.1861 142.611 78.3592C147.776 75.658 152.027 71.49 154.83 66.3793C155.025 66.0049 155.175 65.6155 155.339 65.2262C156.185 63.1619 156.637 60.9576 156.672 58.7271V34.7672" stroke="#373A3A" stroke-width="2" stroke-linecap="round" stroke-linejoin="round"/>
<path d="M211.609 186.375C216.561 180.025 215.428 170.864 209.079 165.912C202.729 160.96 193.567 162.093 188.616 168.443C183.664 174.792 184.797 183.954 191.146 188.906C197.496 193.858 206.657 192.725 211.609 186.375Z" fill="white" stroke="#373A3A" stroke-width="2" stroke-linecap="round" stroke-linejoin="round"/>
<path d="M445.737 219.68V231.626C445.727 231.806 445.668 231.979 445.567 232.129C445.466 232.278 445.327 232.397 445.164 232.474L279.661 328.044C279.138 328.281 278.566 328.393 277.991 328.37C277.417 328.347 276.856 328.19 276.352 327.912L167.905 265.29C167.685 265.2 167.493 265.052 167.348 264.864C167.203 264.675 167.111 264.451 167.08 264.215V252.269C167.112 252.506 167.205 252.73 167.349 252.921C167.494 253.111 167.685 253.261 167.905 253.356L276.352 315.966C276.855 316.243 277.416 316.401 277.99 316.426C278.564 316.45 279.136 316.342 279.661 316.109L445.164 220.54C445.33 220.463 445.471 220.342 445.572 220.19C445.673 220.039 445.73 219.862 445.737 219.68Z" fill="#373A3A"/>
<path d="M445.737 219.68C445.726 219.858 445.667 220.03 445.566 220.177C445.465 220.324 445.326 220.441 445.164 220.516L279.661 316.085C279.136 316.318 278.564 316.426 277.99 316.402C277.416 316.377 276.855 316.219 276.352 315.942L167.905 253.332C167.685 253.237 167.494 253.088 167.349 252.897C167.205 252.707 167.112 252.482 167.08 252.245C167.095 252.068 167.157 251.898 167.26 251.753C167.363 251.608 167.503 251.493 167.666 251.421L168.251 251.074L333.109 155.863C333.632 155.63 334.202 155.522 334.774 155.547C335.346 155.572 335.905 155.729 336.406 156.006L444.853 218.616C445.082 218.7 445.284 218.842 445.439 219.029C445.594 219.216 445.697 219.44 445.737 219.68ZM394.022 211.927C394.739 211.509 394.656 210.732 393.819 210.302L386.102 205.846C385.675 205.61 385.199 205.477 384.711 205.458C384.224 205.439 383.738 205.535 383.295 205.738L375.171 210.421C374.455 210.84 374.538 211.616 375.374 212.046L383.092 216.502C383.52 216.741 383.998 216.876 384.488 216.894C384.978 216.913 385.466 216.815 385.911 216.609L394.022 211.927ZM377.298 202.25C378.014 201.832 377.919 201.056 377.095 200.637L369.377 196.181C368.95 195.94 368.472 195.804 367.982 195.783C367.492 195.762 367.004 195.858 366.558 196.062L340.969 210.839C340.253 211.246 340.336 212.034 341.172 212.452L348.89 216.908C349.318 217.146 349.796 217.282 350.285 217.302C350.775 217.323 351.262 217.229 351.709 217.028L377.298 202.25ZM376.569 222.021C377.298 221.603 377.202 220.827 376.378 220.396L368.684 215.929C368.256 215.69 367.779 215.555 367.289 215.535C366.8 215.514 366.312 215.608 365.865 215.809L357.742 220.504C357.025 220.91 357.109 221.699 357.945 222.129L365.662 226.585C366.091 226.821 366.569 226.954 367.059 226.973C367.548 226.991 368.036 226.895 368.481 226.692L376.569 222.021ZM359.092 232.116C359.82 231.698 359.725 230.921 358.889 230.479L351.171 226.035C350.745 225.797 350.269 225.662 349.782 225.641C349.294 225.62 348.809 225.714 348.364 225.916L287.343 261.145C286.614 261.563 286.71 262.34 287.546 262.77L295.263 267.225C295.689 267.465 296.166 267.599 296.654 267.618C297.142 267.636 297.628 267.539 298.071 267.333L359.092 232.116ZM359.008 191.69C359.725 191.284 359.629 190.495 358.805 190.077L351.088 185.621C350.661 185.38 350.183 185.243 349.692 185.223C349.202 185.202 348.714 185.298 348.268 185.502L340.145 190.184C339.428 190.603 339.524 191.379 340.348 191.809L348.065 196.265C348.492 196.506 348.971 196.643 349.461 196.664C349.951 196.684 350.439 196.589 350.885 196.385L359.008 191.69ZM342.224 222.499C342.952 222.081 342.869 221.304 342.021 220.862L334.303 216.406C333.875 216.173 333.399 216.041 332.912 216.023C332.425 216.004 331.94 216.099 331.496 216.299L323.372 220.994C322.656 221.4 322.739 222.188 323.576 222.618L331.293 227.074C331.721 227.308 332.197 227.439 332.684 227.458C333.171 227.477 333.656 227.382 334.1 227.182L342.224 222.499ZM341.483 201.82C342.2 201.402 342.104 200.625 341.28 200.183L333.563 195.728C333.132 195.496 332.654 195.366 332.165 195.348C331.677 195.329 331.191 195.422 330.743 195.62L322.62 200.315C321.903 200.721 321.999 201.51 322.823 201.94L330.54 206.396C330.97 206.629 331.448 206.761 331.937 206.779C332.426 206.798 332.913 206.703 333.36 206.503L341.483 201.82ZM340.718 181.141C341.435 180.723 341.352 179.947 340.515 179.517L332.798 175.061C332.369 174.825 331.892 174.691 331.402 174.671C330.913 174.65 330.426 174.743 329.979 174.941L321.867 179.636C321.151 180.042 321.234 180.831 322.058 181.261L329.788 185.717C330.214 185.952 330.69 186.086 331.177 186.106C331.664 186.127 332.15 186.035 332.595 185.836L340.718 181.141ZM324.675 232.653C325.392 232.235 325.308 231.459 324.472 231.029L316.754 226.573C316.329 226.332 315.853 226.195 315.365 226.174C314.877 226.154 314.391 226.249 313.947 226.453L305.824 231.148C305.095 231.566 305.191 232.343 306.027 232.761L313.744 237.229C314.171 237.465 314.647 237.598 315.135 237.617C315.622 237.635 316.108 237.539 316.551 237.336L324.675 232.653ZM323.922 211.974C324.651 211.556 324.555 210.78 323.719 210.35L316.002 205.894C315.576 205.656 315.1 205.521 314.612 205.5C314.125 205.479 313.639 205.573 313.194 205.774L305.071 210.469C304.354 210.887 304.438 211.604 305.274 212.094L312.991 216.55C313.418 216.786 313.895 216.919 314.382 216.938C314.87 216.956 315.355 216.86 315.799 216.657L323.922 211.974ZM323.17 191.296C323.886 190.877 323.803 190.101 322.966 189.671L315.249 185.215C314.82 184.978 314.342 184.846 313.852 184.827C313.363 184.808 312.876 184.904 312.43 185.107L304.306 189.79C303.59 190.208 303.685 190.985 304.51 191.415L312.227 195.871C312.655 196.11 313.133 196.245 313.623 196.263C314.114 196.282 314.601 196.184 315.046 195.978L323.17 191.296ZM307.15 242.772C307.866 242.354 307.771 241.577 306.946 241.147L299.229 236.691C298.801 236.453 298.323 236.318 297.834 236.297C297.344 236.276 296.857 236.37 296.41 236.572L288.287 241.266C287.57 241.685 287.665 242.461 288.49 242.879L296.207 247.335C296.634 247.575 297.111 247.712 297.601 247.735C298.09 247.758 298.579 247.666 299.026 247.467L307.15 242.772ZM306.397 222.093C307.126 221.687 307.03 220.898 306.194 220.468L298.477 216.012C298.051 215.773 297.574 215.639 297.086 215.62C296.598 215.601 296.112 215.699 295.669 215.905L287.546 220.588C286.817 221.006 286.901 221.782 287.749 222.212L295.466 226.668C295.893 226.904 296.369 227.037 296.856 227.058C297.343 227.079 297.828 226.986 298.274 226.788L306.397 222.093ZM305.632 201.414C306.361 201.008 306.266 200.219 305.429 199.789L297.712 195.333C297.286 195.094 296.81 194.96 296.321 194.941C295.833 194.922 295.348 195.02 294.905 195.226L286.781 199.909C286.065 200.327 286.148 201.103 286.984 201.533L294.702 205.989C295.128 206.225 295.604 206.358 296.091 206.379C296.578 206.4 297.064 206.307 297.509 206.109L305.632 201.414ZM289.624 252.89C290.341 252.472 290.246 251.695 289.421 251.265L281.704 246.809C281.275 246.574 280.798 246.44 280.309 246.42C279.82 246.399 279.332 246.491 278.885 246.69L270.762 251.385C270.045 251.803 270.14 252.58 270.965 253.01L278.682 257.466C279.11 257.704 279.588 257.839 280.077 257.86C280.567 257.88 281.054 257.786 281.501 257.585L289.624 252.89ZM288.86 232.211C289.589 231.805 289.493 231.076 288.669 230.587L280.952 226.131C280.523 225.895 280.045 225.761 279.556 225.741C279.067 225.72 278.58 225.813 278.132 226.011L270.009 230.706C269.292 231.124 269.376 231.901 270.212 232.331L277.929 236.787C278.357 237.025 278.835 237.16 279.325 237.181C279.814 237.201 280.302 237.107 280.749 236.906L288.86 232.211ZM288.693 272.828C289.41 272.41 289.326 271.634 288.49 271.204L280.772 266.748C280.344 266.509 279.866 266.374 279.377 266.354C278.887 266.333 278.4 266.427 277.953 266.628L269.83 271.323C269.113 271.729 269.209 272.518 270.033 272.948L277.75 277.404C278.18 277.637 278.658 277.769 279.147 277.787C279.636 277.806 280.123 277.712 280.569 277.511L288.693 272.828ZM288.107 211.58C288.836 211.174 288.741 210.386 287.904 209.955L280.187 205.5C279.76 205.263 279.284 205.13 278.796 205.112C278.309 205.093 277.823 205.189 277.38 205.392L269.256 210.075C268.528 210.493 268.623 211.27 269.459 211.712L277.177 216.167C277.604 216.401 278.081 216.532 278.568 216.551C279.055 216.57 279.54 216.475 279.984 216.275L288.107 211.58ZM271.92 263.056C272.649 262.638 272.553 261.862 271.717 261.432L264 256.976C263.574 256.737 263.098 256.603 262.61 256.582C262.123 256.561 261.637 256.655 261.193 256.856L235.676 271.586C234.947 272.004 235.042 272.78 235.879 273.211L243.596 277.667C244.021 277.908 244.497 278.044 244.985 278.065C245.473 278.086 245.959 277.99 246.403 277.786L271.92 263.056ZM271.299 242.306C272.016 241.876 271.932 241.111 271.096 240.681L263.379 236.225C262.952 235.984 262.473 235.848 261.983 235.827C261.493 235.806 261.005 235.902 260.559 236.106L252.448 240.789C251.719 241.207 251.815 241.983 252.639 242.413L260.368 246.869C260.793 247.11 261.269 247.247 261.758 247.268C262.246 247.288 262.732 247.193 263.176 246.989L271.299 242.306ZM271.18 282.827C271.896 282.421 271.813 281.633 270.976 281.203L263.259 276.747C262.829 276.513 262.351 276.382 261.862 276.363C261.373 276.344 260.886 276.439 260.44 276.639L252.317 281.322C251.6 281.74 251.695 282.517 252.52 282.959L260.237 287.415C260.668 287.646 261.146 287.776 261.634 287.794C262.123 287.813 262.609 287.72 263.056 287.522L271.18 282.827ZM270.546 221.627C271.263 221.209 271.168 220.432 270.343 220.002L262.626 215.546C262.199 215.305 261.721 215.169 261.231 215.148C260.741 215.127 260.253 215.223 259.807 215.427L251.683 220.122C250.967 220.528 251.062 221.316 251.886 221.734L259.604 226.19C260.031 226.431 260.509 226.568 260.999 226.589C261.489 226.609 261.977 226.514 262.423 226.31L270.546 221.627ZM253.762 252.412C254.491 252.006 254.407 251.218 253.559 250.799L245.842 246.344C245.417 246.103 244.941 245.966 244.452 245.945C243.964 245.925 243.478 246.02 243.034 246.224L234.911 250.907C234.182 251.325 234.278 252.102 235.114 252.532L242.831 256.988C243.256 257.229 243.732 257.365 244.221 257.386C244.709 257.407 245.195 257.311 245.639 257.107L253.762 252.412ZM253.021 231.745C253.738 231.327 253.643 230.551 252.818 230.121L245.101 225.665C244.674 225.424 244.196 225.287 243.706 225.266C243.216 225.246 242.728 225.341 242.282 225.545L234.158 230.228C233.442 230.658 233.537 231.423 234.361 231.853L242.079 236.309C242.506 236.55 242.984 236.686 243.474 236.707C243.964 236.728 244.452 236.632 244.898 236.428L253.021 231.745ZM236.297 262.543C237.014 262.125 236.93 261.348 236.094 260.918L228.376 256.462C227.95 256.227 227.474 256.093 226.987 256.072C226.5 256.052 226.014 256.144 225.569 256.343L217.446 261.037C216.717 261.444 216.812 262.232 217.649 262.662L225.366 267.118C225.793 267.354 226.268 267.487 226.756 267.508C227.243 267.528 227.728 267.436 228.173 267.237L236.297 262.543ZM235.544 241.864C236.273 241.446 236.177 240.669 235.341 240.239L227.624 235.783C227.197 235.548 226.721 235.414 226.234 235.394C225.747 235.373 225.262 235.465 224.816 235.664L216.693 240.359C215.976 240.765 216.06 241.553 216.896 241.983L224.613 246.439C225.04 246.675 225.516 246.808 226.003 246.829C226.49 246.85 226.975 246.757 227.421 246.559L235.544 241.864ZM218.019 251.982C218.736 251.564 218.652 250.788 217.816 250.369L210.099 245.902C209.672 245.665 209.195 245.532 208.708 245.514C208.22 245.495 207.735 245.591 207.291 245.794L199.168 250.477C198.439 250.895 198.523 251.612 199.371 252.102L207.088 256.558C207.513 256.799 207.989 256.935 208.478 256.956C208.966 256.977 209.452 256.881 209.896 256.677L218.019 251.982Z" fill="white"/>
<path d="M393.772 210.302C394.608 210.78 394.691 211.497 393.975 211.927L385.863 216.609C385.418 216.815 384.931 216.913 384.441 216.894C383.951 216.876 383.472 216.741 383.044 216.502L375.327 212.046C374.49 211.568 374.407 210.851 375.124 210.421L383.247 205.738C383.691 205.535 384.176 205.439 384.663 205.458C385.151 205.477 385.627 205.61 386.054 205.846L393.772 210.302Z" fill="white"/>
<path d="M377.047 200.637C377.871 201.103 377.967 201.832 377.25 202.25L351.661 217.028C351.214 217.229 350.727 217.323 350.237 217.302C349.748 217.282 349.27 217.146 348.842 216.908L341.125 212.452C340.288 211.974 340.205 211.258 340.922 210.839L366.51 196.062C366.956 195.858 367.444 195.762 367.934 195.783C368.424 195.804 368.903 195.94 369.33 196.181L377.047 200.637Z" fill="white"/>
<path d="M376.354 220.396C377.178 220.874 377.274 221.591 376.545 222.021L368.434 226.704C367.988 226.907 367.501 227.003 367.011 226.985C366.522 226.966 366.043 226.833 365.614 226.597L357.897 222.141C357.061 221.651 356.977 220.946 357.694 220.516L365.817 215.821C366.264 215.62 366.752 215.526 367.241 215.547C367.731 215.567 368.209 215.702 368.637 215.941L376.354 220.396Z" fill="white"/>
<path d="M358.865 230.479C359.701 230.969 359.797 231.674 359.068 232.116L298.047 267.297C297.604 267.503 297.118 267.601 296.63 267.582C296.142 267.563 295.665 267.429 295.239 267.19L287.522 262.734C286.686 262.244 286.59 261.539 287.319 261.109L348.34 225.88C348.785 225.679 349.27 225.585 349.758 225.605C350.246 225.626 350.722 225.761 351.147 225.999L358.865 230.479Z" fill="white"/>
<path d="M358.781 190.077C359.605 190.555 359.701 191.272 358.984 191.69L350.861 196.385C350.415 196.589 349.927 196.684 349.437 196.664C348.947 196.643 348.468 196.506 348.041 196.265L340.324 191.809C339.5 191.332 339.404 190.615 340.121 190.185L348.245 185.502C348.69 185.298 349.178 185.202 349.669 185.223C350.159 185.244 350.637 185.38 351.064 185.621L358.781 190.077Z" fill="white"/>
<path d="M341.997 220.862C342.845 221.352 342.928 222.057 342.2 222.499L334.076 227.182C333.632 227.382 333.147 227.477 332.66 227.458C332.173 227.439 331.697 227.308 331.269 227.074L323.552 222.618C322.715 222.129 322.632 221.424 323.349 220.994L331.472 216.299C331.916 216.099 332.401 216.004 332.888 216.023C333.375 216.041 333.851 216.173 334.279 216.406L341.997 220.862Z" fill="white"/>
<path d="M341.208 200.183C342.032 200.673 342.128 201.378 341.411 201.82L333.288 206.503C332.841 206.703 332.355 206.798 331.866 206.779C331.377 206.761 330.898 206.629 330.469 206.396L322.751 201.94C321.927 201.45 321.831 200.745 322.548 200.315L330.672 195.62C331.119 195.422 331.605 195.329 332.094 195.348C332.582 195.366 333.06 195.496 333.491 195.728L341.208 200.183Z" fill="white"/>
<path d="M340.491 179.517C341.328 179.995 341.411 180.711 340.694 181.141L332.571 185.836C332.126 186.035 331.64 186.127 331.153 186.106C330.666 186.086 330.191 185.952 329.764 185.717L322.094 181.285C321.27 180.795 321.186 180.09 321.903 179.66L330.015 174.965C330.462 174.767 330.949 174.674 331.438 174.695C331.927 174.715 332.405 174.849 332.834 175.085L340.491 179.517Z" fill="white"/>
<path d="M335.008 152.996C335.07 153.483 334.99 153.977 334.778 154.42C334.566 154.863 334.231 155.235 333.814 155.493L168.311 251.062C168.024 251.245 167.678 251.313 167.343 251.253C167.122 251.211 166.92 251.099 166.767 250.933C166.615 250.768 166.519 250.558 166.495 250.334L161.717 224.936C167.487 205.273 177.76 181.846 196.145 181.846C202.405 181.846 208.737 183.949 214.328 183.949C240.609 183.949 230.515 117.456 264.872 117.456C275.779 117.456 283.795 131.003 292.277 131.003C312.956 131.003 303.387 98.593 320.828 76.8867L335.008 152.996Z" fill="#10C285"/>
<path d="M324.484 230.993C325.32 231.471 325.404 232.187 324.687 232.617L316.563 237.3C316.12 237.503 315.634 237.599 315.147 237.581C314.659 237.562 314.183 237.429 313.756 237.193L306.039 232.725C305.203 232.247 305.107 231.53 305.836 231.112L313.959 226.417C314.403 226.213 314.889 226.118 315.377 226.139C315.865 226.159 316.341 226.296 316.766 226.537L324.484 230.993Z" fill="white"/>
<path d="M323.719 210.314C324.555 210.792 324.651 211.509 323.922 211.939L315.799 216.621C315.355 216.824 314.87 216.921 314.382 216.902C313.895 216.883 313.418 216.75 312.991 216.514L305.274 212.058C304.438 211.568 304.354 210.863 305.071 210.433L313.194 205.738C313.639 205.537 314.125 205.443 314.612 205.464C315.1 205.485 315.576 205.62 316.002 205.858L323.719 210.314Z" fill="white"/>
<path d="M322.966 189.647C323.803 190.125 323.886 190.841 323.169 191.271L315.046 195.954C314.601 196.16 314.113 196.258 313.623 196.239C313.133 196.221 312.655 196.086 312.227 195.847L304.509 191.391C303.685 190.901 303.59 190.196 304.306 189.766L312.43 185.083C312.876 184.88 313.363 184.784 313.852 184.803C314.342 184.821 314.82 184.954 315.249 185.191L322.966 189.647Z" fill="white"/>
<path d="M313.815 39.4713L320.804 76.8867C303.363 98.5929 312.932 131.003 292.253 131.003C283.771 131.003 275.755 117.456 264.848 117.456C230.491 117.456 240.609 183.949 214.304 183.949C208.713 183.949 202.358 181.846 196.122 181.846C177.736 181.846 167.451 205.273 161.693 224.936L145.291 136.797C145.238 136.311 145.322 135.82 145.533 135.379C145.744 134.938 146.073 134.564 146.485 134.3L311.988 38.7306C312.287 38.5566 312.635 38.4853 312.979 38.5275C313.202 38.5732 313.404 38.6899 313.555 38.8601C313.705 39.0302 313.797 39.2447 313.815 39.4713Z" fill="white"/>
<path d="M312.967 38.5395C312.624 38.4973 312.275 38.5686 311.976 38.7426L146.473 134.312C146.062 134.576 145.732 134.949 145.521 135.39C145.31 135.832 145.226 136.323 145.279 136.809L166.483 250.298C166.507 250.522 166.603 250.732 166.756 250.898C166.908 251.063 167.11 251.175 167.331 251.218L157.774 249.175C157.553 249.13 157.353 249.015 157.202 248.847C157.052 248.679 156.959 248.468 156.938 248.243L135.017 133.285C134.961 132.798 135.044 132.306 135.255 131.864C135.466 131.423 135.798 131.05 136.212 130.788L301.714 35.2184C302.011 35.0373 302.362 34.9656 302.706 35.0154L312.967 38.5395Z" fill="#C2C7CC"/>
<path d="M306.946 241.111C307.771 241.601 307.866 242.306 307.15 242.736L299.026 247.431C298.578 247.63 298.09 247.722 297.601 247.7C297.111 247.677 296.634 247.54 296.207 247.299L288.49 242.844C287.665 242.378 287.57 241.649 288.286 241.231L296.41 236.536C296.857 236.335 297.344 236.241 297.834 236.261C298.323 236.282 298.801 236.417 299.229 236.655L306.946 241.111Z" fill="white"/>
<path d="M306.194 220.432C307.03 220.922 307.126 221.627 306.397 222.057L298.274 226.752C297.828 226.95 297.343 227.043 296.856 227.022C296.369 227.001 295.893 226.868 295.466 226.632L287.749 222.176C286.901 221.698 286.817 220.982 287.546 220.552L295.669 215.869C296.112 215.663 296.598 215.565 297.086 215.584C297.574 215.603 298.051 215.737 298.477 215.976L306.194 220.432Z" fill="white"/>
<path d="M305.429 199.754C306.266 200.243 306.361 200.948 305.632 201.378L297.509 206.073C297.064 206.272 296.578 206.364 296.091 206.343C295.604 206.323 295.129 206.189 294.702 205.954L286.984 201.498C286.148 201.02 286.065 200.303 286.781 199.873L294.905 195.19C295.348 194.984 295.833 194.887 296.321 194.906C296.81 194.924 297.286 195.059 297.712 195.298L305.429 199.754Z" fill="white"/>
<path d="M289.421 251.23C290.246 251.707 290.341 252.424 289.624 252.854L281.501 257.549C281.054 257.75 280.567 257.844 280.077 257.824C279.588 257.803 279.11 257.668 278.682 257.43L270.965 252.974C270.14 252.496 270.045 251.779 270.762 251.349L278.885 246.654C279.332 246.456 279.82 246.363 280.309 246.384C280.798 246.404 281.275 246.538 281.704 246.774L289.421 251.23Z" fill="white"/>
<path d="M288.645 230.55C289.469 231.04 289.565 231.745 288.836 232.175L280.725 236.87C280.278 237.071 279.79 237.165 279.301 237.145C278.811 237.124 278.333 236.989 277.905 236.751L270.188 232.295C269.352 231.817 269.268 231.1 269.985 230.67L278.109 225.975C278.556 225.777 279.043 225.684 279.532 225.705C280.021 225.725 280.499 225.859 280.928 226.095L288.645 230.55Z" fill="white"/>
<path d="M288.49 271.12C289.326 271.598 289.41 272.315 288.693 272.745L280.569 277.427C280.123 277.628 279.636 277.722 279.147 277.704C278.658 277.685 278.18 277.554 277.75 277.32L270.033 272.864C269.208 272.374 269.113 271.669 269.83 271.239L277.953 266.545C278.4 266.343 278.887 266.249 279.377 266.27C279.866 266.291 280.344 266.426 280.772 266.664L288.49 271.12Z" fill="white"/>
<path d="M287.904 209.872C288.741 210.362 288.836 211.066 288.107 211.496L279.984 216.191C279.54 216.391 279.055 216.486 278.568 216.467C278.081 216.449 277.604 216.317 277.177 216.084L269.459 211.628C268.623 211.138 268.528 210.433 269.256 209.991L277.38 205.308C277.823 205.105 278.309 205.009 278.796 205.028C279.284 205.047 279.76 205.179 280.187 205.416L287.904 209.872Z" fill="white"/>
<path d="M271.753 261.431C272.589 261.909 272.685 262.626 271.956 263.056L246.439 277.786C245.995 277.99 245.509 278.085 245.021 278.065C244.533 278.044 244.057 277.907 243.632 277.666L235.914 273.21C235.078 272.733 234.983 272.016 235.711 271.586L261.229 256.856C261.673 256.655 262.159 256.561 262.646 256.582C263.134 256.602 263.61 256.737 264.036 256.976L271.753 261.431Z" fill="white"/>
<path d="M271.132 240.681C271.968 241.147 272.052 241.876 271.335 242.306L263.211 246.989C262.768 247.193 262.282 247.288 261.793 247.268C261.305 247.247 260.829 247.11 260.404 246.869L252.675 242.413C251.851 241.936 251.755 241.219 252.484 240.789L260.595 236.106C261.041 235.902 261.529 235.806 262.019 235.827C262.509 235.848 262.987 235.984 263.415 236.225L271.132 240.681Z" fill="white"/>
<path d="M271.012 281.203C271.849 281.692 271.932 282.397 271.215 282.827L263.092 287.522C262.645 287.72 262.158 287.813 261.67 287.794C261.181 287.776 260.703 287.646 260.273 287.415L252.555 282.959C251.731 282.469 251.636 281.764 252.352 281.322L260.476 276.639C260.922 276.439 261.409 276.344 261.898 276.363C262.387 276.382 262.865 276.513 263.295 276.747L271.012 281.203Z" fill="white"/>
<path d="M270.379 220.002C271.203 220.48 271.299 221.197 270.582 221.627L262.459 226.31C262.013 226.514 261.525 226.61 261.035 226.589C260.545 226.568 260.067 226.432 259.64 226.19L251.922 221.735C251.098 221.257 251.002 220.54 251.719 220.122L259.843 215.427C260.289 215.223 260.777 215.127 261.267 215.148C261.757 215.169 262.235 215.305 262.662 215.546L270.379 220.002Z" fill="white"/>
<path d="M253.595 250.8C254.443 251.277 254.527 251.994 253.798 252.412L245.674 257.107C245.231 257.311 244.744 257.407 244.256 257.386C243.768 257.365 243.292 257.229 242.867 256.988L235.15 252.532C234.314 252.054 234.218 251.337 234.947 250.907L243.07 246.224C243.514 246.02 244 245.925 244.488 245.945C244.976 245.966 245.453 246.103 245.877 246.344L253.595 250.8Z" fill="white"/>
<path d="M252.806 230.121C253.631 230.599 253.726 231.315 253.009 231.745L244.886 236.428C244.44 236.632 243.952 236.728 243.462 236.707C242.972 236.686 242.494 236.55 242.067 236.309L234.349 231.853C233.525 231.387 233.43 230.658 234.146 230.228L242.27 225.545C242.716 225.341 243.204 225.246 243.694 225.266C244.184 225.287 244.662 225.424 245.089 225.665L252.806 230.121Z" fill="white"/>
<path d="M236.082 260.918C236.918 261.396 237.002 262.112 236.285 262.542L228.161 267.237C227.716 267.436 227.231 267.528 226.744 267.507C226.257 267.487 225.781 267.353 225.354 267.118L217.637 262.662C216.801 262.172 216.705 261.467 217.434 261.037L225.557 256.342C226.002 256.144 226.488 256.051 226.975 256.072C227.462 256.093 227.938 256.226 228.365 256.462L236.082 260.918Z" fill="white"/>
<path d="M235.317 240.239C236.153 240.717 236.249 241.434 235.52 241.864L227.397 246.559C226.951 246.757 226.466 246.85 225.979 246.829C225.492 246.808 225.016 246.675 224.589 246.439L216.872 241.983C216.036 241.493 215.952 240.789 216.669 240.358L224.793 235.664C225.238 235.465 225.723 235.373 226.21 235.393C226.697 235.414 227.173 235.548 227.6 235.783L235.317 240.239Z" fill="white"/>
<path d="M217.792 250.369C218.628 250.835 218.712 251.564 217.995 251.982L209.872 256.677C209.428 256.881 208.942 256.977 208.454 256.956C207.966 256.935 207.489 256.799 207.064 256.558L199.347 252.102C198.499 251.612 198.415 250.907 199.144 250.477L207.267 245.794C207.711 245.591 208.196 245.495 208.684 245.514C209.171 245.532 209.648 245.665 210.075 245.902L217.792 250.369Z" fill="white"/>
<path d="M168.251 251.062L167.666 251.409C167.503 251.481 167.363 251.596 167.26 251.741C167.157 251.886 167.095 252.056 167.08 252.233C167.112 252.47 167.205 252.695 167.349 252.885C167.494 253.076 167.685 253.226 167.905 253.32L276.352 315.93C276.855 316.208 277.416 316.365 277.99 316.39C278.564 316.415 279.136 316.306 279.661 316.074L445.164 220.504C445.326 220.429 445.465 220.312 445.566 220.165C445.667 220.018 445.726 219.846 445.737 219.668C445.708 219.432 445.617 219.207 445.475 219.017C445.332 218.826 445.143 218.676 444.925 218.581L336.43 155.982C335.929 155.705 335.37 155.548 334.798 155.523C334.226 155.498 333.656 155.606 333.133 155.839" stroke="#373A3A" stroke-width="2" stroke-linecap="round" stroke-linejoin="round"/>
<path d="M168.251 251.062L333.754 155.493C334.172 155.235 334.506 154.863 334.718 154.42C334.93 153.977 335.01 153.483 334.948 152.996L313.756 39.507C313.734 39.2809 313.64 39.0681 313.487 38.9001C313.334 38.7321 313.131 38.6182 312.908 38.5753C312.564 38.5331 312.216 38.6043 311.916 38.7783L146.413 134.348C146.002 134.612 145.672 134.985 145.461 135.426C145.25 135.867 145.166 136.359 145.219 136.845L166.423 250.334C166.447 250.558 166.543 250.768 166.696 250.933C166.848 251.099 167.05 251.211 167.272 251.253C167.61 251.316 167.96 251.248 168.251 251.062Z" stroke="#373A3A" stroke-width="2" stroke-linecap="round" stroke-linejoin="round"/>
<path d="M351.685 217.028L377.274 202.25C377.99 201.832 377.895 201.055 377.071 200.637L369.354 196.181C368.926 195.94 368.448 195.804 367.958 195.783C367.468 195.762 366.98 195.858 366.534 196.062L340.945 210.839C340.229 211.246 340.312 212.034 341.148 212.452L348.866 216.908C349.294 217.146 349.772 217.282 350.261 217.302C350.751 217.323 351.238 217.229 351.685 217.028Z" stroke="#373A3A" stroke-width="2" stroke-linecap="round" stroke-linejoin="round"/>
<path d="M334.04 227.182L342.164 222.499C342.893 222.081 342.809 221.304 341.961 220.862L334.244 216.406C333.816 216.173 333.34 216.041 332.853 216.023C332.365 216.004 331.881 216.099 331.436 216.299L323.313 220.994C322.596 221.4 322.68 222.188 323.516 222.618L331.233 227.074C331.661 227.308 332.137 227.439 332.624 227.458C333.111 227.477 333.596 227.382 334.04 227.182Z" stroke="#373A3A" stroke-width="2" stroke-linecap="round" stroke-linejoin="round"/>
<path d="M316.551 237.3L324.675 232.617C325.392 232.199 325.308 231.423 324.472 230.993L316.754 226.537C316.329 226.296 315.853 226.159 315.365 226.139C314.877 226.118 314.391 226.213 313.947 226.417L305.824 231.112C305.095 231.53 305.191 232.307 306.027 232.725L313.744 237.193C314.171 237.429 314.647 237.562 315.135 237.581C315.622 237.599 316.108 237.503 316.551 237.3Z" stroke="#373A3A" stroke-width="2" stroke-linecap="round" stroke-linejoin="round"/>
<path d="M299.026 247.431L307.15 242.736C307.866 242.318 307.771 241.541 306.946 241.111L299.229 236.655C298.801 236.417 298.323 236.282 297.834 236.261C297.344 236.241 296.857 236.335 296.41 236.536L288.286 241.231C287.57 241.649 287.665 242.425 288.49 242.844L296.207 247.299C296.634 247.54 297.111 247.677 297.601 247.7C298.09 247.722 298.578 247.63 299.026 247.431Z" stroke="#373A3A" stroke-width="2" stroke-linecap="round" stroke-linejoin="round"/>
<path d="M281.477 257.549L289.601 252.854C290.317 252.436 290.222 251.66 289.398 251.23L281.68 246.774C281.251 246.538 280.774 246.404 280.285 246.384C279.796 246.363 279.308 246.456 278.861 246.654L270.738 251.349C270.021 251.767 270.116 252.544 270.941 252.974L278.658 257.43C279.086 257.668 279.564 257.803 280.053 257.824C280.543 257.844 281.03 257.75 281.477 257.549Z" stroke="#373A3A" stroke-width="2" stroke-linecap="round" stroke-linejoin="round"/>
<path d="M246.439 277.786L271.956 263.056C272.685 262.638 272.589 261.862 271.753 261.431L264.036 256.976C263.61 256.737 263.134 256.602 262.646 256.582C262.159 256.561 261.673 256.655 261.229 256.856L235.711 271.586C234.983 272.004 235.078 272.78 235.914 273.21L243.632 277.666C244.057 277.907 244.533 278.044 245.021 278.065C245.509 278.085 245.995 277.99 246.439 277.786Z" stroke="#373A3A" stroke-width="2" stroke-linecap="round" stroke-linejoin="round"/>
<path d="M350.861 196.385L358.984 191.69C359.701 191.284 359.605 190.495 358.781 190.077L351.064 185.621C350.637 185.38 350.159 185.244 349.669 185.223C349.178 185.202 348.69 185.298 348.245 185.502L340.121 190.185C339.404 190.603 339.5 191.379 340.324 191.809L348.041 196.265C348.468 196.506 348.947 196.643 349.437 196.664C349.927 196.684 350.415 196.589 350.861 196.385Z" stroke="#373A3A" stroke-width="2" stroke-linecap="round" stroke-linejoin="round"/>
<path d="M333.336 206.503L341.459 201.82C342.176 201.402 342.08 200.625 341.256 200.183L333.539 195.728C333.108 195.496 332.63 195.366 332.142 195.348C331.653 195.329 331.167 195.422 330.719 195.62L322.596 200.315C321.879 200.721 321.975 201.51 322.799 201.94L330.516 206.396C330.946 206.629 331.424 206.761 331.913 206.779C332.402 206.798 332.889 206.703 333.336 206.503Z" stroke="#373A3A" stroke-width="2" stroke-linecap="round" stroke-linejoin="round"/>
<path d="M315.799 216.621L323.922 211.939C324.651 211.52 324.555 210.744 323.719 210.314L316.002 205.858C315.576 205.62 315.1 205.485 314.612 205.464C314.125 205.443 313.639 205.537 313.194 205.738L305.071 210.433C304.354 210.851 304.438 211.568 305.274 212.058L312.991 216.514C313.418 216.75 313.895 216.883 314.382 216.902C314.87 216.921 315.355 216.824 315.799 216.621Z" stroke="#373A3A" stroke-width="2" stroke-linecap="round" stroke-linejoin="round"/>
<path d="M298.274 226.752L306.397 222.057C307.126 221.651 307.03 220.862 306.194 220.432L298.477 215.976C298.051 215.737 297.574 215.603 297.086 215.584C296.598 215.565 296.112 215.663 295.669 215.869L287.546 220.552C286.817 220.97 286.901 221.746 287.749 222.176L295.466 226.632C295.893 226.868 296.369 227.001 296.856 227.022C297.343 227.043 297.828 226.95 298.274 226.752Z" stroke="#373A3A" stroke-width="2" stroke-linecap="round" stroke-linejoin="round"/>
<path d="M280.748 236.87L288.86 232.175C289.589 231.769 289.493 231.04 288.669 230.55L280.952 226.095C280.523 225.859 280.045 225.725 279.556 225.705C279.067 225.684 278.58 225.777 278.132 225.975L270.009 230.67C269.292 231.088 269.376 231.864 270.212 232.295L277.929 236.751C278.357 236.989 278.835 237.124 279.325 237.145C279.814 237.165 280.302 237.071 280.748 236.87Z" stroke="#373A3A" stroke-width="2" stroke-linecap="round" stroke-linejoin="round"/>
<path d="M263.211 246.989L271.335 242.306C272.052 241.876 271.968 241.111 271.132 240.681L263.415 236.225C262.987 235.984 262.509 235.848 262.019 235.827C261.529 235.806 261.041 235.902 260.595 236.106L252.484 240.789C251.755 241.207 251.851 241.983 252.675 242.413L260.404 246.869C260.829 247.11 261.305 247.247 261.793 247.268C262.282 247.288 262.768 247.193 263.211 246.989Z" stroke="#373A3A" stroke-width="2" stroke-linecap="round" stroke-linejoin="round"/>
<path d="M245.639 257.107L253.762 252.412C254.491 252.006 254.407 251.218 253.559 250.8L245.842 246.344C245.417 246.103 244.941 245.966 244.452 245.945C243.964 245.925 243.478 246.02 243.034 246.224L234.911 250.907C234.182 251.325 234.278 252.102 235.114 252.532L242.831 256.988C243.256 257.229 243.732 257.365 244.221 257.386C244.709 257.407 245.195 257.311 245.639 257.107Z" stroke="#373A3A" stroke-width="2" stroke-linecap="round" stroke-linejoin="round"/>
<path d="M228.149 267.297L236.273 262.602C236.99 262.184 236.906 261.408 236.07 260.978L228.353 256.522C227.926 256.286 227.45 256.153 226.963 256.132C226.476 256.111 225.991 256.204 225.545 256.402L217.422 261.097C216.693 261.503 216.789 262.292 217.625 262.722L225.342 267.178C225.769 267.413 226.245 267.547 226.732 267.567C227.219 267.588 227.704 267.496 228.149 267.297Z" stroke="#373A3A" stroke-width="2" stroke-linecap="round" stroke-linejoin="round"/>
<path d="M332.571 185.836L340.695 181.141C341.411 180.723 341.328 179.947 340.492 179.517L332.774 175.061C332.345 174.825 331.868 174.692 331.379 174.671C330.89 174.65 330.402 174.743 329.955 174.941L321.844 179.636C321.127 180.042 321.21 180.831 322.035 181.261L329.764 185.717C330.191 185.952 330.666 186.086 331.153 186.106C331.641 186.127 332.126 186.035 332.571 185.836Z" stroke="#373A3A" stroke-width="2" stroke-linecap="round" stroke-linejoin="round"/>
<path d="M315.046 195.942L323.169 191.259C323.886 190.841 323.803 190.065 322.966 189.635L315.249 185.179C314.82 184.942 314.342 184.81 313.852 184.791C313.363 184.772 312.876 184.868 312.43 185.071L304.306 189.754C303.59 190.172 303.685 190.949 304.509 191.379L312.227 195.835C312.655 196.074 313.133 196.209 313.623 196.227C314.113 196.246 314.601 196.148 315.046 195.942Z" stroke="#373A3A" stroke-width="2" stroke-linecap="round" stroke-linejoin="round"/>
<path d="M297.509 206.073L305.632 201.378C306.361 200.972 306.266 200.184 305.429 199.754L297.712 195.298C297.286 195.059 296.81 194.924 296.321 194.906C295.833 194.887 295.348 194.984 294.905 195.19L286.781 199.873C286.065 200.291 286.148 201.068 286.984 201.498L294.702 205.954C295.129 206.189 295.604 206.323 296.091 206.343C296.578 206.364 297.064 206.272 297.509 206.073Z" stroke="#373A3A" stroke-width="2" stroke-linecap="round" stroke-linejoin="round"/>
<path d="M279.984 216.191L288.107 211.496C288.836 211.09 288.741 210.302 287.904 209.872L280.187 205.416C279.76 205.179 279.284 205.047 278.796 205.028C278.309 205.009 277.823 205.105 277.38 205.308L269.256 209.991C268.528 210.409 268.623 211.186 269.459 211.628L277.177 216.084C277.604 216.317 278.081 216.449 278.568 216.467C279.055 216.486 279.54 216.391 279.984 216.191Z" stroke="#373A3A" stroke-width="2" stroke-linecap="round" stroke-linejoin="round"/>
<path d="M262.459 226.31L270.582 221.627C271.299 221.209 271.203 220.432 270.379 220.002L262.662 215.546C262.235 215.305 261.757 215.169 261.267 215.148C260.777 215.127 260.289 215.223 259.843 215.427L251.719 220.122C251.002 220.528 251.098 221.316 251.922 221.735L259.64 226.19C260.067 226.432 260.545 226.568 261.035 226.589C261.525 226.61 262.013 226.514 262.459 226.31Z" stroke="#373A3A" stroke-width="2" stroke-linecap="round" stroke-linejoin="round"/>
<path d="M244.934 236.428L253.057 231.745C253.774 231.327 253.678 230.551 252.854 230.121L245.137 225.665C244.71 225.424 244.232 225.287 243.742 225.266C243.252 225.246 242.764 225.341 242.318 225.545L234.194 230.228C233.477 230.658 233.573 231.423 234.397 231.853L242.115 236.309C242.542 236.55 243.02 236.686 243.51 236.707C244 236.728 244.488 236.632 244.934 236.428Z" stroke="#373A3A" stroke-width="2" stroke-linecap="round" stroke-linejoin="round"/>
<path d="M227.397 246.559L235.52 241.864C236.249 241.446 236.153 240.669 235.317 240.239L227.6 235.783C227.173 235.548 226.697 235.414 226.21 235.393C225.723 235.373 225.238 235.465 224.793 235.664L216.669 240.358C215.952 240.765 216.036 241.553 216.872 241.983L224.589 246.439C225.016 246.675 225.492 246.808 225.979 246.829C226.466 246.85 226.951 246.757 227.397 246.559Z" stroke="#373A3A" stroke-width="2" stroke-linecap="round" stroke-linejoin="round"/>
<path d="M209.872 256.677L217.995 251.982C218.712 251.564 218.628 250.787 217.792 250.369L210.075 245.902C209.648 245.665 209.171 245.532 208.684 245.514C208.196 245.495 207.711 245.591 207.267 245.794L199.144 250.477C198.415 250.895 198.499 251.612 199.347 252.102L207.064 256.558C207.489 256.799 207.966 256.935 208.454 256.956C208.942 256.977 209.428 256.881 209.872 256.677Z" stroke="#373A3A" stroke-width="2" stroke-linecap="round" stroke-linejoin="round"/>
<path d="M385.911 216.609L394.022 211.927C394.739 211.508 394.655 210.732 393.819 210.302L386.102 205.846C385.675 205.61 385.199 205.477 384.711 205.458C384.224 205.439 383.738 205.535 383.295 205.738L375.171 210.421C374.454 210.839 374.538 211.616 375.374 212.046L383.092 216.502C383.52 216.741 383.998 216.876 384.488 216.894C384.978 216.913 385.466 216.815 385.911 216.609Z" stroke="#373A3A" stroke-width="2" stroke-linecap="round" stroke-linejoin="round"/>
<path d="M368.434 226.68L376.545 221.997C377.274 221.579 377.178 220.803 376.354 220.373L368.685 215.929C368.256 215.69 367.779 215.555 367.289 215.535C366.8 215.514 366.312 215.608 365.865 215.809L357.742 220.504C357.025 220.91 357.109 221.699 357.945 222.129L365.662 226.585C366.086 226.812 366.556 226.938 367.037 226.955C367.517 226.971 367.995 226.877 368.434 226.68Z" stroke="#373A3A" stroke-width="2" stroke-linecap="round" stroke-linejoin="round"/>
<path d="M280.569 277.427L288.693 272.745C289.41 272.327 289.326 271.55 288.49 271.12L280.772 266.664C280.344 266.426 279.866 266.291 279.377 266.27C278.887 266.249 278.4 266.343 277.953 266.545L269.83 271.239C269.113 271.646 269.208 272.434 270.033 272.864L277.75 277.32C278.18 277.554 278.658 277.685 279.147 277.704C279.636 277.722 280.123 277.628 280.569 277.427Z" stroke="#373A3A" stroke-width="2" stroke-linecap="round" stroke-linejoin="round"/>
<path d="M263.092 287.522L271.215 282.827C271.932 282.421 271.849 281.633 271.012 281.203L263.295 276.747C262.865 276.513 262.387 276.382 261.898 276.363C261.409 276.344 260.922 276.439 260.476 276.639L252.352 281.322C251.636 281.74 251.731 282.517 252.555 282.959L260.273 287.415C260.703 287.646 261.181 287.776 261.67 287.794C262.158 287.813 262.645 287.72 263.092 287.522Z" stroke="#373A3A" stroke-width="2" stroke-linecap="round" stroke-linejoin="round"/>
<path d="M298.047 267.297L359.068 232.08C359.797 231.662 359.701 230.885 358.865 230.443L351.147 225.999C350.722 225.761 350.246 225.626 349.758 225.605C349.27 225.585 348.785 225.679 348.34 225.88L287.319 261.109C286.59 261.527 286.686 262.304 287.522 262.734L295.239 267.19C295.665 267.429 296.142 267.563 296.63 267.582C297.118 267.601 297.604 267.503 298.047 267.297Z" stroke="#373A3A" stroke-width="2" stroke-linecap="round" stroke-linejoin="round"/>
<path d="M445.737 219.68V231.626C445.727 231.806 445.668 231.979 445.567 232.129C445.466 232.278 445.327 232.397 445.164 232.474L279.661 328.044C279.138 328.281 278.566 328.393 277.991 328.37C277.417 328.347 276.856 328.19 276.352 327.912L167.905 265.29C167.685 265.2 167.493 265.052 167.348 264.864C167.203 264.675 167.111 264.451 167.08 264.215V252.269" stroke="#373A3A" stroke-width="2" stroke-linecap="round" stroke-linejoin="round"/>
<path d="M312.967 38.5393L302.753 35.0748C302.409 35.025 302.059 35.0969 301.762 35.278L136.259 130.848C135.845 131.109 135.514 131.482 135.303 131.924C135.092 132.366 135.009 132.858 135.065 133.344L156.986 248.303C157.007 248.527 157.1 248.739 157.25 248.907C157.401 249.074 157.601 249.189 157.822 249.234L167.379 251.277" stroke="#373A3A" stroke-width="2" stroke-linecap="round" stroke-linejoin="round"/>
<path d="M161.693 224.936C167.463 205.273 177.736 181.846 196.122 181.846C202.381 181.846 208.713 183.949 214.304 183.949C240.585 183.949 230.491 117.456 264.848 117.456C275.755 117.456 283.771 131.003 292.253 131.003C312.932 131.003 303.363 98.593 320.804 76.8867" stroke="#373A3A" stroke-width="2" stroke-linecap="round" stroke-linejoin="round"/>
<path d="M85 260.468V301.017C85 306.458 88.6077 311.9 95.7932 316.059C101.781 319.328 108.378 321.328 115.173 321.933V281.383C108.381 280.765 101.786 278.766 95.7932 275.51C88.5629 271.366 85 265.909 85 260.468Z" fill="white"/>
<path d="M85.164 258.5C85.057 259.151 85.0022 259.808 85 260.468C85 265.909 88.6077 271.365 95.7932 275.51C101.786 278.766 108.381 280.765 115.173 281.383L122.97 258.5H85.164Z" fill="#DAE0E5"/>
<path d="M103.635 249.287V258.5H122.94V289.836H133.614V272.17L141.411 249.287H103.635Z" fill="#969A9E"/>
<path d="M103.635 249.272H141.411L133.614 272.17C145.123 273.393 157.467 271.44 166.411 266.297C173.597 262.152 177.19 256.711 177.19 251.27C177.19 245.828 173.597 240.372 166.411 236.228C152.025 227.924 128.695 227.924 114.234 236.228C107.943 239.88 104.41 244.516 103.635 249.272Z" fill="white"/>
<path d="M115.129 281.383V321.933L122.94 299.049V258.5L115.129 281.383Z" fill="#373A3A"/>
<path d="M133.614 289.836V312.72C145.123 313.957 157.467 311.989 166.412 306.846C173.597 302.702 177.19 297.26 177.19 291.819V251.27C177.19 256.711 173.597 262.152 166.412 266.297C157.467 271.44 145.168 273.393 133.614 272.17V289.836Z" fill="#373A3A"/>
<path d="M103.635 249.272H141.411L133.614 272.17C145.123 273.393 157.467 271.44 166.411 266.297C173.597 262.152 177.175 256.711 177.19 251.27C177.205 245.828 173.597 240.372 166.411 236.228C152.025 227.924 128.695 227.924 114.234 236.228C107.943 239.88 104.41 244.516 103.635 249.272Z" stroke="#373A3A" stroke-width="2" stroke-linecap="round" stroke-linejoin="round"/>
<path d="M177.13 251.27V291.774" stroke="#373A3A" stroke-width="2" stroke-linecap="round" stroke-linejoin="round"/>
<path d="M103.635 249.287V258.5" stroke="#373A3A" stroke-width="2" stroke-linecap="round" stroke-linejoin="round"/>
<path d="M122.926 289.836H133.614" stroke="#373A3A" stroke-width="2" stroke-linecap="round" stroke-linejoin="round"/>
<path d="M133.614 272.17V312.719C145.123 313.957 157.467 311.989 166.412 306.846C173.597 302.701 177.19 297.26 177.19 291.819" stroke="#373A3A" stroke-width="2" stroke-linecap="round" stroke-linejoin="round"/>
<path d="M85 260.468C85 265.909 88.6077 271.365 95.7932 275.51C101.786 278.766 108.381 280.765 115.173 281.383L122.97 258.5H85.1938C85.0768 259.15 85.012 259.808 85 260.468Z" stroke="#373A3A" stroke-width="2" stroke-linecap="round" stroke-linejoin="round"/>
<path d="M85 260.468V301.017C85 306.458 88.6077 311.9 95.7932 316.059C101.781 319.328 108.378 321.328 115.173 321.933L122.97 299.049V258.5" stroke="#373A3A" stroke-width="2" stroke-linecap="round" stroke-linejoin="round"/>
<path d="M115.129 281.384V321.933" stroke="#373A3A" stroke-width="2" stroke-linecap="round" stroke-linejoin="round"/>
</svg>
