<svg width="1666" height="1314" viewBox="0 0 1666 1314" fill="none" xmlns="http://www.w3.org/2000/svg">
<path fill-rule="evenodd" clip-rule="evenodd" d="M39.7118 0.000244141H1622.5V1.49187H39.7118V0.000244141ZM0 32.812V1281.05H1.89103V32.812H0ZM151.282 120.801V238.616H39.7162V240.107H151.282V357.923H39.715V359.414H151.282V477.229H39.7139V478.72H151.282V596.535H39.7139V598.026H151.282V715.84H39.7162V717.332H151.282V835.145H39.7137V836.637H151.282V954.445H39.7129V955.937H151.282V1073.75H39.7153V1075.24H151.282L151.282 1193.06H39.7162V1194.55H151.282V1281.05H153.173V1194.55H302.563V1281.05H304.454V1194.55H453.844V1281.05H455.736V1194.55H605.127V1281.05H607.017V1194.55H756.409V1281.05H758.3V1194.55H907.692V1281.05H909.583V1194.55H1058.97V1281.05H1060.86V1194.55H1210.25V1281.05H1212.14V1194.55H1361.54V1281.05H1363.42V1194.55H1512.82V1281.05H1514.71V1194.55H1622.51V1193.06H1514.71V1075.24H1622.51V1073.75H1514.71V955.937H1622.5V954.446H1514.71V836.637H1622.5V835.145H1514.71V717.332H1622.51V715.84H1514.71V598.026H1622.5V596.535H1514.71V478.721H1622.5V477.229H1514.71V359.414H1622.51V357.923H1514.71V240.107H1622.51V238.616H1514.71V120.801H1622.5V119.309H1514.71V32.813H1512.82V119.309H1363.44V32.813H1361.54V119.309H1212.14V32.813H1210.25V119.309H1060.86V32.812H1058.97V119.309H909.583V32.812H907.692V119.309H758.301V32.813H756.409V119.309H607.017V32.813H605.127V119.309H455.736V32.812H453.845V119.309H304.454V32.812H302.563V119.309H153.173V32.812H151.282V119.309H39.7139V120.801H151.282ZM302.563 1193.06H153.173V1075.24H302.563V1193.06ZM453.844 1193.06H304.454V1075.24H453.844V1193.06ZM605.127 1193.06H455.736V1075.24H605.127V1193.06ZM756.409 1193.06H607.017V1075.24H756.409V1193.06ZM907.692 1193.06H758.3L758.301 1075.24H907.692V1193.06ZM1058.97 1193.06H909.583V1075.24H1058.97V1193.06ZM1210.25 1193.06H1060.86V1075.24H1210.25V1193.06ZM1361.54 1193.06H1212.14V1075.24H1361.54V1193.06ZM1512.82 1193.06H1363.42L1363.44 1075.24H1512.82V1193.06ZM1512.82 1073.75V955.937H1363.44V1073.75H1512.82ZM1361.54 1073.75V955.937H1212.14V1073.75H1361.54ZM1210.25 1073.75V955.937H1060.86V1073.75H1210.25ZM1058.97 1073.75V955.937H909.583V1073.75H1058.97ZM907.692 1073.75V955.937H758.301V1073.75H907.692ZM756.409 1073.75V955.937H607.017V1073.75H756.409ZM605.127 1073.75V955.937H455.736V1073.75H605.127ZM453.844 1073.75V955.937H304.454V1073.75H453.844ZM302.563 1073.75V955.937H153.173V1073.75H302.563ZM302.563 954.445H153.173V836.637H302.563V954.445ZM453.844 954.445H304.454V836.637H453.845L453.844 954.445ZM605.127 954.445H455.736V836.637H605.127V954.445ZM756.409 954.445H607.017V836.637H756.409V954.445ZM907.692 954.445H758.301V836.637H907.692V954.445ZM1058.97 954.445H909.583V836.637H1058.97V954.445ZM1210.25 954.445H1060.86V836.637H1210.25V954.445ZM1361.54 954.446L1212.14 954.445V836.637H1361.54V954.446ZM1512.82 954.446H1363.44V836.637H1512.82V954.446ZM1512.82 835.145V717.332H1363.44V835.145H1512.82ZM1361.54 835.145V717.332H1212.14V835.145H1361.54ZM1210.25 835.145V717.332H1060.86V835.145H1210.25ZM1058.97 835.145V717.332H909.583V835.145H1058.97ZM907.692 835.145V717.332H758.301V835.145H907.692ZM756.409 835.145V717.332H607.017V835.145H756.409ZM605.127 835.145V717.332H455.736V835.145H605.127ZM453.845 835.145V717.332H304.454V835.145H453.845ZM302.563 835.145V717.332H153.173V835.145H302.563ZM302.563 715.84H153.173L153.173 598.026H302.563V715.84ZM453.845 715.84H304.454V598.026H453.845V715.84ZM605.127 715.84H455.736V598.026H605.127V715.84ZM756.409 715.84H607.017V598.026H756.409V715.84ZM907.692 715.84H758.301V598.026H907.692V715.84ZM1058.97 715.84H909.583V598.026H1058.97V715.84ZM1210.25 715.84H1060.86V598.026H1210.25V715.84ZM1361.54 715.84H1212.14V598.026H1361.54V715.84ZM1512.82 715.84H1363.44V598.026H1512.82V715.84ZM1512.82 596.535V478.721L1363.44 478.72V596.535H1512.82ZM1361.54 596.535V478.72H1212.14V596.535H1361.54ZM1210.25 596.535V478.72H1060.86V596.535H1210.25ZM1058.97 596.535V478.72H909.583V596.535H1058.97ZM907.692 596.535V478.72H758.301V596.535H907.692ZM756.409 596.535V478.72H607.017V596.535H756.409ZM605.127 596.535V478.72H455.736V596.535H605.127ZM453.845 596.535V478.72H304.454V596.535H453.845ZM302.563 596.535V478.72H153.173V596.535H302.563ZM302.563 477.229H153.173V359.414L302.563 359.414V477.229ZM453.845 477.229H304.454V359.414H453.845V477.229ZM605.127 477.229H455.736V359.414H605.127V477.229ZM756.409 477.229H607.017V359.414L756.409 359.414V477.229ZM907.692 477.229H758.301V359.414H907.692V477.229ZM1058.97 477.229H909.583V359.414L1058.97 359.414V477.229ZM1210.25 477.229H1060.86V359.414H1210.25V477.229ZM1361.54 477.229H1212.14V359.414H1361.54V477.229ZM1512.82 477.229H1363.44V359.414L1512.82 359.414V477.229ZM1512.82 357.923V240.107H1363.44V357.923L1512.82 357.923ZM1361.54 357.923V240.107H1212.14V357.923H1361.54ZM1210.25 357.923V240.107H1060.86V357.923H1210.25ZM1058.97 357.923V240.107H909.583V357.923L1058.97 357.923ZM907.692 357.923V240.107H758.301V357.923H907.692ZM756.409 357.923V240.107H607.017V357.923L756.409 357.923ZM605.127 357.923V240.107H455.736V357.923H605.127ZM453.845 357.923V240.107H304.454V357.923H453.845ZM302.563 357.923V240.107H153.173V357.923L302.563 357.923ZM302.563 238.616H153.173V120.801H302.563V238.616ZM453.845 238.616H304.454V120.801H453.845V238.616ZM605.127 238.616H455.736V120.801H605.127V238.616ZM756.409 238.616H607.017V120.801H756.409V238.616ZM907.692 238.616H758.301V120.801H907.692V238.616ZM1058.97 238.616H909.583V120.801H1058.97V238.616ZM1210.25 238.616H1060.86V120.801H1210.25V238.616ZM1361.54 238.616H1212.14V120.801H1361.54V238.616ZM1512.82 238.616H1363.44V120.801H1512.82V238.616ZM1664.11 32.813V1281.05H1666V32.813H1664.11ZM1622.5 1312.37H39.7139V1313.86H1622.5V1312.37Z" fill="url(#paint0_radial_5208_1580)" fill-opacity="0.1"/>
<defs>
<radialGradient id="paint0_radial_5208_1580" cx="0" cy="0" r="1" gradientUnits="userSpaceOnUse" gradientTransform="translate(833 656.931) rotate(90) scale(656.931 833)">
<stop stop-color="white"/>
<stop offset="1" stop-color="white" stop-opacity="0"/>
</radialGradient>
</defs>
</svg>
