<svg width="342" height="600" viewBox="0 0 342 600" fill="none" xmlns="http://www.w3.org/2000/svg">
<path fill-rule="evenodd" clip-rule="evenodd" d="M-1235.29 -357H347.499V-355.508H-1235.29V-357ZM-1275 -324.188V924.05H-1273.11V-324.188H-1275ZM-1123.72 -236.199V-118.384H-1235.28V-116.893H-1123.72V0.922638H-1235.28V2.41397H-1123.72V120.229H-1235.29V121.72H-1123.72V239.535H-1235.29V241.026H-1123.72V358.84H-1235.28V360.332H-1123.72V478.145H-1235.29V479.637H-1123.72V597.445H-1235.29V598.937H-1123.72V716.751H-1235.28V718.242H-1123.72L-1123.72 836.062H-1235.28V837.554H-1123.72V924.05H-1121.83V837.554H-972.437V924.05H-970.546V837.554H-821.156V924.05H-819.264V837.554H-669.873V924.05H-667.983V837.554H-518.591V924.05H-516.7V837.554H-367.308V924.05H-365.417V837.554H-216.029V924.05H-214.138V837.554H-64.7464V924.05H-62.8551V837.554H86.5373V924.05H88.4239V837.554H237.825V924.05H239.711V837.554H347.511V836.062H239.711V718.242H347.511V716.751H239.711V598.937H347.499V597.446H239.711V479.637H347.499V478.145H239.711V360.332H347.511V358.84H239.711V241.026H347.499V239.535H239.711V121.721H347.499V120.229H239.711V2.41409H347.511V0.92276H239.711V-116.893H347.511V-118.384H239.711V-236.199H347.499V-237.691H239.711V-324.187H237.825V-237.691H88.4361V-324.187H86.5373V-237.691H-62.8551V-324.187H-64.7464V-237.691H-214.138V-324.188H-216.029V-237.691H-365.417V-324.188H-367.308V-237.691H-516.699V-324.187H-518.591V-237.691H-667.983V-324.187H-669.873V-237.691H-819.264V-324.188H-821.155V-237.691H-970.546V-324.188H-972.437V-237.691H-1121.83V-324.188H-1123.72V-237.691H-1235.29V-236.199H-1123.72ZM-972.437 836.062H-1121.83V718.242H-972.437V836.062ZM-821.156 836.062H-970.546V718.242H-821.156V836.062ZM-669.873 836.062H-819.264V718.242H-669.873V836.062ZM-518.591 836.062H-667.983V718.242H-518.591V836.062ZM-367.308 836.062H-516.7L-516.699 718.242H-367.308V836.062ZM-216.029 836.062H-365.417V718.242H-216.029V836.062ZM-64.7464 836.062H-214.138V718.242H-64.7464V836.062ZM86.5373 836.062H-62.8551V718.242H86.5373V836.062ZM237.825 836.062H88.4239L88.4361 718.242H237.825V836.062ZM237.825 716.751V598.937H88.4361V716.751H237.825ZM86.5373 716.751V598.937H-62.8551V716.751H86.5373ZM-64.7464 716.751V598.937H-214.138V716.751H-64.7464ZM-216.029 716.751V598.937H-365.417V716.751H-216.029ZM-367.308 716.751V598.937H-516.699V716.751H-367.308ZM-518.591 716.751V598.937H-667.983V716.751H-518.591ZM-669.873 716.751V598.937H-819.264V716.751H-669.873ZM-821.156 716.751V598.937H-970.546V716.751H-821.156ZM-972.437 716.751V598.937H-1121.83V716.751H-972.437ZM-972.437 597.445H-1121.83V479.637H-972.437V597.445ZM-821.156 597.445H-970.546V479.637H-821.155L-821.156 597.445ZM-669.873 597.445H-819.264V479.637H-669.873V597.445ZM-518.591 597.445H-667.983V479.637H-518.591V597.445ZM-367.308 597.445H-516.699V479.637H-367.308V597.445ZM-216.029 597.445H-365.417V479.637H-216.029V597.445ZM-64.7464 597.445H-214.138V479.637H-64.7464V597.445ZM86.5373 597.446L-62.8551 597.445V479.637H86.5373V597.446ZM237.825 597.446H88.4361V479.637H237.825V597.446ZM237.825 478.145V360.332H88.4361V478.145H237.825ZM86.5373 478.145V360.332H-62.8551V478.145H86.5373ZM-64.7464 478.145V360.332H-214.138V478.145H-64.7464ZM-216.029 478.145V360.332H-365.417V478.145H-216.029ZM-367.308 478.145V360.332H-516.699V478.145H-367.308ZM-518.591 478.145V360.332H-667.983V478.145H-518.591ZM-669.873 478.145V360.332H-819.264V478.145H-669.873ZM-821.155 478.145V360.332H-970.546V478.145H-821.155ZM-972.437 478.145V360.332H-1121.83V478.145H-972.437ZM-972.437 358.84H-1121.83L-1121.83 241.026H-972.437V358.84ZM-821.155 358.84H-970.546V241.026H-821.155V358.84ZM-669.873 358.84H-819.264V241.026H-669.873V358.84ZM-518.591 358.84H-667.983V241.026H-518.591V358.84ZM-367.308 358.84H-516.699V241.026H-367.308V358.84ZM-216.029 358.84H-365.417V241.026H-216.029V358.84ZM-64.7464 358.84H-214.138V241.026H-64.7464V358.84ZM86.5373 358.84H-62.8551V241.026H86.5373V358.84ZM237.825 358.84H88.4361V241.026H237.825V358.84ZM237.825 239.535V121.721L88.4361 121.72V239.535H237.825ZM86.5373 239.535V121.72H-62.8551V239.535H86.5373ZM-64.7464 239.535V121.72H-214.138V239.535H-64.7464ZM-216.029 239.535V121.72H-365.417V239.535H-216.029ZM-367.308 239.535V121.72H-516.699V239.535H-367.308ZM-518.591 239.535V121.72H-667.983V239.535H-518.591ZM-669.873 239.535V121.72H-819.264V239.535H-669.873ZM-821.155 239.535V121.72H-970.546V239.535H-821.155ZM-972.437 239.535V121.72H-1121.83V239.535H-972.437ZM-972.437 120.229H-1121.83V2.41397L-972.437 2.414V120.229ZM-821.155 120.229H-970.546V2.414H-821.155V120.229ZM-669.873 120.229H-819.264V2.414H-669.873V120.229ZM-518.591 120.229H-667.983V2.414L-518.591 2.41403V120.229ZM-367.308 120.229H-516.699V2.41403H-367.308V120.229ZM-216.029 120.229H-365.417V2.41403L-216.029 2.41406V120.229ZM-64.7464 120.229H-214.138V2.41406H-64.7464V120.229ZM86.5373 120.229H-62.8551V2.41406H86.5373V120.229ZM237.825 120.229H88.4361V2.41406L237.825 2.41409V120.229ZM237.825 0.92276V-116.893H88.4361V0.922729L237.825 0.92276ZM86.5373 0.922729V-116.893H-62.8551V0.922729H86.5373ZM-64.7464 0.922729V-116.893H-214.138V0.922729H-64.7464ZM-216.029 0.922729V-116.893H-365.417V0.922699L-216.029 0.922729ZM-367.308 0.922699V-116.893H-516.699V0.922699H-367.308ZM-518.591 0.922699V-116.893H-667.983V0.922668L-518.591 0.922699ZM-669.873 0.922668V-116.893H-819.264V0.922668H-669.873ZM-821.155 0.922668V-116.893H-970.546V0.922668H-821.155ZM-972.437 0.922668V-116.893H-1121.83V0.922638L-972.437 0.922668ZM-972.437 -118.384H-1121.83V-236.199H-972.437V-118.384ZM-821.155 -118.384H-970.546V-236.199H-821.155V-118.384ZM-669.873 -118.384H-819.264V-236.199H-669.873V-118.384ZM-518.591 -118.384H-667.983V-236.199H-518.591V-118.384ZM-367.308 -118.384H-516.699V-236.199H-367.308V-118.384ZM-216.029 -118.384H-365.417V-236.199H-216.029V-118.384ZM-64.7464 -118.384H-214.138V-236.199H-64.7464V-118.384ZM86.5373 -118.384H-62.8551V-236.199H86.5373V-118.384ZM237.825 -118.384H88.4361V-236.199H237.825V-118.384ZM389.112 -324.187V924.05H390.999V-324.187H389.112ZM347.499 955.37H-1235.29V956.861H347.499V955.37Z" fill="url(#paint0_radial_5239_1228)" fill-opacity="0.1"/>
<path d="M278 616.5V117.551C278 86.734 246.435 61.7516 207.5 61.7516C168.565 61.7516 137 36.7698 137 5.95287V-30" stroke="white" stroke-opacity="0.15" stroke-width="1.225"/>
<path d="M278.474 877.257V438.176C278.474 386.422 225.272 344.467 159.649 344.467C94.026 344.467 40.8242 302.512 40.8242 250.758V190.378" stroke="url(#paint1_linear_5239_1228)"/>
<path d="M309.1 -43V643.879" stroke="white" stroke-opacity="0.15"/>
<path fill-rule="evenodd" clip-rule="evenodd" d="M330 161C318.954 161 310 152.046 310 141V161H290C301.046 161 310 169.954 310 181V161H330Z" fill="#10C285"/>
<path d="M69 -2V496.949C69 527.766 100.565 552.748 139.5 552.748C178.435 552.748 210 577.73 210 608.547V644.5" stroke="white" stroke-opacity="0.15" stroke-width="1.225"/>
<path d="M68.75 -68V290.047C68.75 335.399 115.369 372.163 172.875 372.163H181.45C249.104 372.163 303.95 415.416 303.95 468.771V1156.01" stroke="url(#paint2_linear_5239_1228)" stroke-width="1.225"/>
<path d="M38.7383 -43V643.879" stroke="white" stroke-opacity="0.15"/>
<path fill-rule="evenodd" clip-rule="evenodd" d="M59 519C47.9543 519 39 510.046 39 499V519H19C30.0457 519 39 527.954 39 539V519H59Z" fill="#10C285"/>
<defs>
<radialGradient id="paint0_radial_5239_1228" cx="0" cy="0" r="1" gradientUnits="userSpaceOnUse" gradientTransform="translate(-442 299.931) rotate(90) scale(656.931 833)">
<stop stop-color="white"/>
<stop offset="1" stop-color="white" stop-opacity="0"/>
</radialGradient>
<linearGradient id="paint1_linear_5239_1228" x1="209.262" y1="521.953" x2="210.405" y2="419.058" gradientUnits="userSpaceOnUse">
<stop stop-color="#34D391" stop-opacity="0"/>
<stop offset="0.0864046" stop-color="#34D391"/>
<stop offset="1" stop-color="#34D391" stop-opacity="0"/>
</linearGradient>
<linearGradient id="paint2_linear_5239_1228" x1="186.35" y1="86.3002" x2="186.35" y2="181.247" gradientUnits="userSpaceOnUse">
<stop stop-color="#34D391" stop-opacity="0"/>
<stop offset="0.960564" stop-color="#34D391"/>
<stop offset="1" stop-color="#34D391" stop-opacity="0"/>
</linearGradient>
</defs>
</svg>
